<?xml version="1.0" encoding="utf-8" standalone="no"?>
<!DOCTYPE svg PUBLIC "-//W3C//DTD SVG 1.1//EN"
  "http://www.w3.org/Graphics/SVG/1.1/DTD/svg11.dtd">
<svg xmlns:xlink="http://www.w3.org/1999/xlink" width="582.2525pt" height="338.32852pt" viewBox="0 0 582.2525 338.32852" xmlns="http://www.w3.org/2000/svg" version="1.1">
 <metadata>
  <rdf:RDF xmlns:dc="http://purl.org/dc/elements/1.1/" xmlns:cc="http://creativecommons.org/ns#" xmlns:rdf="http://www.w3.org/1999/02/22-rdf-syntax-ns#">
   <cc:Work>
    <dc:type rdf:resource="http://purl.org/dc/dcmitype/StillImage"/>
    <dc:date>2026-06-27T18:25:30.495705</dc:date>
    <dc:format>image/svg+xml</dc:format>
    <dc:creator>
     <cc:Agent>
      <dc:title>Matplotlib v3.9.4, https://matplotlib.org/</dc:title>
     </cc:Agent>
    </dc:creator>
   </cc:Work>
  </rdf:RDF>
 </metadata>
 <defs>
  <style type="text/css">*{stroke-linejoin: round; stroke-linecap: butt}</style>
 </defs>
 <g id="figure_1">
  <g id="patch_1">
   <path d="M 0 338.32852 
L 582.2525 338.32852 
L 582.2525 0 
L 0 0 
z
" style="fill: #ffffff"/>
  </g>
  <g id="axes_1">
   <g id="patch_2">
    <path d="M 44.1025 294.005287 
L 575.0525 294.005287 
L 575.0525 22.318125 
L 44.1025 22.318125 
z
" style="fill: #ffffff"/>
   </g>
   <g id="matplotlib.axis_1">
    <g id="xtick_1">
     <g id="line2d_1">
      <defs>
       <path id="m98743d25f4" d="M 0 0 
L 0 3.5 
" style="stroke: #000000; stroke-width: 0.8"/>
      </defs>
      <g>
       <use xlink:href="#m98743d25f4" x="114.947735" y="294.005287" style="stroke: #000000; stroke-width: 0.8"/>
      </g>
     </g>
     <g id="text_1">
      <!-- Global H/L -->
      <g transform="translate(73.176889 322.057741) rotate(-20) scale(0.085 -0.085)">
       <defs>
        <path id="DejaVuSans-47" d="M 3809 666 
L 3809 1919 
L 2778 1919 
L 2778 2438 
L 4434 2438 
L 4434 434 
Q 4069 175 3628 42 
Q 3188 -91 2688 -91 
Q 1594 -91 976 548 
Q 359 1188 359 2328 
Q 359 3472 976 4111 
Q 1594 4750 2688 4750 
Q 3144 4750 3555 4637 
Q 3966 4525 4313 4306 
L 4313 3634 
Q 3963 3931 3569 4081 
Q 3175 4231 2741 4231 
Q 1884 4231 1454 3753 
Q 1025 3275 1025 2328 
Q 1025 1384 1454 906 
Q 1884 428 2741 428 
Q 3075 428 3337 486 
Q 3600 544 3809 666 
z
" transform="scale(0.015625)"/>
        <path id="DejaVuSans-6c" d="M 603 4863 
L 1178 4863 
L 1178 0 
L 603 0 
L 603 4863 
z
" transform="scale(0.015625)"/>
        <path id="DejaVuSans-6f" d="M 1959 3097 
Q 1497 3097 1228 2736 
Q 959 2375 959 1747 
Q 959 1119 1226 758 
Q 1494 397 1959 397 
Q 2419 397 2687 759 
Q 2956 1122 2956 1747 
Q 2956 2369 2687 2733 
Q 2419 3097 1959 3097 
z
M 1959 3584 
Q 2709 3584 3137 3096 
Q 3566 2609 3566 1747 
Q 3566 888 3137 398 
Q 2709 -91 1959 -91 
Q 1206 -91 779 398 
Q 353 888 353 1747 
Q 353 2609 779 3096 
Q 1206 3584 1959 3584 
z
" transform="scale(0.015625)"/>
        <path id="DejaVuSans-62" d="M 3116 1747 
Q 3116 2381 2855 2742 
Q 2594 3103 2138 3103 
Q 1681 3103 1420 2742 
Q 1159 2381 1159 1747 
Q 1159 1113 1420 752 
Q 1681 391 2138 391 
Q 2594 391 2855 752 
Q 3116 1113 3116 1747 
z
M 1159 2969 
Q 1341 3281 1617 3432 
Q 1894 3584 2278 3584 
Q 2916 3584 3314 3078 
Q 3713 2572 3713 1747 
Q 3713 922 3314 415 
Q 2916 -91 2278 -91 
Q 1894 -91 1617 61 
Q 1341 213 1159 525 
L 1159 0 
L 581 0 
L 581 4863 
L 1159 4863 
L 1159 2969 
z
" transform="scale(0.015625)"/>
        <path id="DejaVuSans-61" d="M 2194 1759 
Q 1497 1759 1228 1600 
Q 959 1441 959 1056 
Q 959 750 1161 570 
Q 1363 391 1709 391 
Q 2188 391 2477 730 
Q 2766 1069 2766 1631 
L 2766 1759 
L 2194 1759 
z
M 3341 1997 
L 3341 0 
L 2766 0 
L 2766 531 
Q 2569 213 2275 61 
Q 1981 -91 1556 -91 
Q 1019 -91 701 211 
Q 384 513 384 1019 
Q 384 1609 779 1909 
Q 1175 2209 1959 2209 
L 2766 2209 
L 2766 2266 
Q 2766 2663 2505 2880 
Q 2244 3097 1772 3097 
Q 1472 3097 1187 3025 
Q 903 2953 641 2809 
L 641 3341 
Q 956 3463 1253 3523 
Q 1550 3584 1831 3584 
Q 2591 3584 2966 3190 
Q 3341 2797 3341 1997 
z
" transform="scale(0.015625)"/>
        <path id="DejaVuSans-20" transform="scale(0.015625)"/>
        <path id="DejaVuSans-48" d="M 628 4666 
L 1259 4666 
L 1259 2753 
L 3553 2753 
L 3553 4666 
L 4184 4666 
L 4184 0 
L 3553 0 
L 3553 2222 
L 1259 2222 
L 1259 0 
L 628 0 
L 628 4666 
z
" transform="scale(0.015625)"/>
        <path id="DejaVuSans-2f" d="M 1625 4666 
L 2156 4666 
L 531 -594 
L 0 -594 
L 1625 4666 
z
" transform="scale(0.015625)"/>
        <path id="DejaVuSans-4c" d="M 628 4666 
L 1259 4666 
L 1259 531 
L 3531 531 
L 3531 0 
L 628 0 
L 628 4666 
z
" transform="scale(0.015625)"/>
       </defs>
       <use xlink:href="#DejaVuSans-47"/>
       <use xlink:href="#DejaVuSans-6c" x="77.490234"/>
       <use xlink:href="#DejaVuSans-6f" x="105.273438"/>
       <use xlink:href="#DejaVuSans-62" x="166.455078"/>
       <use xlink:href="#DejaVuSans-61" x="229.931641"/>
       <use xlink:href="#DejaVuSans-6c" x="291.210938"/>
       <use xlink:href="#DejaVuSans-20" x="318.994141"/>
       <use xlink:href="#DejaVuSans-48" x="350.78125"/>
       <use xlink:href="#DejaVuSans-2f" x="425.976562"/>
       <use xlink:href="#DejaVuSans-4c" x="459.667969"/>
      </g>
     </g>
    </g>
    <g id="xtick_2">
     <g id="line2d_2">
      <g>
       <use xlink:href="#m98743d25f4" x="244.700912" y="294.005287" style="stroke: #000000; stroke-width: 0.8"/>
      </g>
     </g>
     <g id="text_2">
      <!-- H-CDR3 -->
      <g transform="translate(212.848154 318.447852) rotate(-20) scale(0.085 -0.085)">
       <defs>
        <path id="DejaVuSans-2d" d="M 313 2009 
L 1997 2009 
L 1997 1497 
L 313 1497 
L 313 2009 
z
" transform="scale(0.015625)"/>
        <path id="DejaVuSans-43" d="M 4122 4306 
L 4122 3641 
Q 3803 3938 3442 4084 
Q 3081 4231 2675 4231 
Q 1875 4231 1450 3742 
Q 1025 3253 1025 2328 
Q 1025 1406 1450 917 
Q 1875 428 2675 428 
Q 3081 428 3442 575 
Q 3803 722 4122 1019 
L 4122 359 
Q 3791 134 3420 21 
Q 3050 -91 2638 -91 
Q 1578 -91 968 557 
Q 359 1206 359 2328 
Q 359 3453 968 4101 
Q 1578 4750 2638 4750 
Q 3056 4750 3426 4639 
Q 3797 4528 4122 4306 
z
" transform="scale(0.015625)"/>
        <path id="DejaVuSans-44" d="M 1259 4147 
L 1259 519 
L 2022 519 
Q 2988 519 3436 956 
Q 3884 1394 3884 2338 
Q 3884 3275 3436 3711 
Q 2988 4147 2022 4147 
L 1259 4147 
z
M 628 4666 
L 1925 4666 
Q 3281 4666 3915 4102 
Q 4550 3538 4550 2338 
Q 4550 1131 3912 565 
Q 3275 0 1925 0 
L 628 0 
L 628 4666 
z
" transform="scale(0.015625)"/>
        <path id="DejaVuSans-52" d="M 2841 2188 
Q 3044 2119 3236 1894 
Q 3428 1669 3622 1275 
L 4263 0 
L 3584 0 
L 2988 1197 
Q 2756 1666 2539 1819 
Q 2322 1972 1947 1972 
L 1259 1972 
L 1259 0 
L 628 0 
L 628 4666 
L 2053 4666 
Q 2853 4666 3247 4331 
Q 3641 3997 3641 3322 
Q 3641 2881 3436 2590 
Q 3231 2300 2841 2188 
z
M 1259 4147 
L 1259 2491 
L 2053 2491 
Q 2509 2491 2742 2702 
Q 2975 2913 2975 3322 
Q 2975 3731 2742 3939 
Q 2509 4147 2053 4147 
L 1259 4147 
z
" transform="scale(0.015625)"/>
        <path id="DejaVuSans-33" d="M 2597 2516 
Q 3050 2419 3304 2112 
Q 3559 1806 3559 1356 
Q 3559 666 3084 287 
Q 2609 -91 1734 -91 
Q 1441 -91 1130 -33 
Q 819 25 488 141 
L 488 750 
Q 750 597 1062 519 
Q 1375 441 1716 441 
Q 2309 441 2620 675 
Q 2931 909 2931 1356 
Q 2931 1769 2642 2001 
Q 2353 2234 1838 2234 
L 1294 2234 
L 1294 2753 
L 1863 2753 
Q 2328 2753 2575 2939 
Q 2822 3125 2822 3475 
Q 2822 3834 2567 4026 
Q 2313 4219 1838 4219 
Q 1578 4219 1281 4162 
Q 984 4106 628 3988 
L 628 4550 
Q 988 4650 1302 4700 
Q 1616 4750 1894 4750 
Q 2613 4750 3031 4423 
Q 3450 4097 3450 3541 
Q 3450 3153 3228 2886 
Q 3006 2619 2597 2516 
z
" transform="scale(0.015625)"/>
       </defs>
       <use xlink:href="#DejaVuSans-48"/>
       <use xlink:href="#DejaVuSans-2d" x="75.195312"/>
       <use xlink:href="#DejaVuSans-43" x="111.279297"/>
       <use xlink:href="#DejaVuSans-44" x="181.103516"/>
       <use xlink:href="#DejaVuSans-52" x="258.105469"/>
       <use xlink:href="#DejaVuSans-33" x="327.587891"/>
      </g>
     </g>
    </g>
    <g id="xtick_3">
     <g id="line2d_3">
      <g>
       <use xlink:href="#m98743d25f4" x="374.454088" y="294.005287" style="stroke: #000000; stroke-width: 0.8"/>
      </g>
     </g>
     <g id="text_3">
      <!-- All CDRs -->
      <g transform="translate(339.970485 319.405401) rotate(-20) scale(0.085 -0.085)">
       <defs>
        <path id="DejaVuSans-41" d="M 2188 4044 
L 1331 1722 
L 3047 1722 
L 2188 4044 
z
M 1831 4666 
L 2547 4666 
L 4325 0 
L 3669 0 
L 3244 1197 
L 1141 1197 
L 716 0 
L 50 0 
L 1831 4666 
z
" transform="scale(0.015625)"/>
        <path id="DejaVuSans-73" d="M 2834 3397 
L 2834 2853 
Q 2591 2978 2328 3040 
Q 2066 3103 1784 3103 
Q 1356 3103 1142 2972 
Q 928 2841 928 2578 
Q 928 2378 1081 2264 
Q 1234 2150 1697 2047 
L 1894 2003 
Q 2506 1872 2764 1633 
Q 3022 1394 3022 966 
Q 3022 478 2636 193 
Q 2250 -91 1575 -91 
Q 1294 -91 989 -36 
Q 684 19 347 128 
L 347 722 
Q 666 556 975 473 
Q 1284 391 1588 391 
Q 1994 391 2212 530 
Q 2431 669 2431 922 
Q 2431 1156 2273 1281 
Q 2116 1406 1581 1522 
L 1381 1569 
Q 847 1681 609 1914 
Q 372 2147 372 2553 
Q 372 3047 722 3315 
Q 1072 3584 1716 3584 
Q 2034 3584 2315 3537 
Q 2597 3491 2834 3397 
z
" transform="scale(0.015625)"/>
       </defs>
       <use xlink:href="#DejaVuSans-41"/>
       <use xlink:href="#DejaVuSans-6c" x="68.408203"/>
       <use xlink:href="#DejaVuSans-6c" x="96.191406"/>
       <use xlink:href="#DejaVuSans-20" x="123.974609"/>
       <use xlink:href="#DejaVuSans-43" x="155.761719"/>
       <use xlink:href="#DejaVuSans-44" x="225.585938"/>
       <use xlink:href="#DejaVuSans-52" x="302.587891"/>
       <use xlink:href="#DejaVuSans-73" x="372.070312"/>
      </g>
     </g>
    </g>
    <g id="xtick_4">
     <g id="line2d_4">
      <g>
       <use xlink:href="#m98743d25f4" x="504.207265" y="294.005287" style="stroke: #000000; stroke-width: 0.8"/>
      </g>
     </g>
     <g id="text_4">
      <!-- CDR mean+std -->
      <g transform="translate(442.078566 329.467393) rotate(-20) scale(0.085 -0.085)">
       <defs>
        <path id="DejaVuSans-6d" d="M 3328 2828 
Q 3544 3216 3844 3400 
Q 4144 3584 4550 3584 
Q 5097 3584 5394 3201 
Q 5691 2819 5691 2113 
L 5691 0 
L 5113 0 
L 5113 2094 
Q 5113 2597 4934 2840 
Q 4756 3084 4391 3084 
Q 3944 3084 3684 2787 
Q 3425 2491 3425 1978 
L 3425 0 
L 2847 0 
L 2847 2094 
Q 2847 2600 2669 2842 
Q 2491 3084 2119 3084 
Q 1678 3084 1418 2786 
Q 1159 2488 1159 1978 
L 1159 0 
L 581 0 
L 581 3500 
L 1159 3500 
L 1159 2956 
Q 1356 3278 1631 3431 
Q 1906 3584 2284 3584 
Q 2666 3584 2933 3390 
Q 3200 3197 3328 2828 
z
" transform="scale(0.015625)"/>
        <path id="DejaVuSans-65" d="M 3597 1894 
L 3597 1613 
L 953 1613 
Q 991 1019 1311 708 
Q 1631 397 2203 397 
Q 2534 397 2845 478 
Q 3156 559 3463 722 
L 3463 178 
Q 3153 47 2828 -22 
Q 2503 -91 2169 -91 
Q 1331 -91 842 396 
Q 353 884 353 1716 
Q 353 2575 817 3079 
Q 1281 3584 2069 3584 
Q 2775 3584 3186 3129 
Q 3597 2675 3597 1894 
z
M 3022 2063 
Q 3016 2534 2758 2815 
Q 2500 3097 2075 3097 
Q 1594 3097 1305 2825 
Q 1016 2553 972 2059 
L 3022 2063 
z
" transform="scale(0.015625)"/>
        <path id="DejaVuSans-6e" d="M 3513 2113 
L 3513 0 
L 2938 0 
L 2938 2094 
Q 2938 2591 2744 2837 
Q 2550 3084 2163 3084 
Q 1697 3084 1428 2787 
Q 1159 2491 1159 1978 
L 1159 0 
L 581 0 
L 581 3500 
L 1159 3500 
L 1159 2956 
Q 1366 3272 1645 3428 
Q 1925 3584 2291 3584 
Q 2894 3584 3203 3211 
Q 3513 2838 3513 2113 
z
" transform="scale(0.015625)"/>
        <path id="DejaVuSans-2b" d="M 2944 4013 
L 2944 2272 
L 4684 2272 
L 4684 1741 
L 2944 1741 
L 2944 0 
L 2419 0 
L 2419 1741 
L 678 1741 
L 678 2272 
L 2419 2272 
L 2419 4013 
L 2944 4013 
z
" transform="scale(0.015625)"/>
        <path id="DejaVuSans-74" d="M 1172 4494 
L 1172 3500 
L 2356 3500 
L 2356 3053 
L 1172 3053 
L 1172 1153 
Q 1172 725 1289 603 
Q 1406 481 1766 481 
L 2356 481 
L 2356 0 
L 1766 0 
Q 1100 0 847 248 
Q 594 497 594 1153 
L 594 3053 
L 172 3053 
L 172 3500 
L 594 3500 
L 594 4494 
L 1172 4494 
z
" transform="scale(0.015625)"/>
        <path id="DejaVuSans-64" d="M 2906 2969 
L 2906 4863 
L 3481 4863 
L 3481 0 
L 2906 0 
L 2906 525 
Q 2725 213 2448 61 
Q 2172 -91 1784 -91 
Q 1150 -91 751 415 
Q 353 922 353 1747 
Q 353 2572 751 3078 
Q 1150 3584 1784 3584 
Q 2172 3584 2448 3432 
Q 2725 3281 2906 2969 
z
M 947 1747 
Q 947 1113 1208 752 
Q 1469 391 1925 391 
Q 2381 391 2643 752 
Q 2906 1113 2906 1747 
Q 2906 2381 2643 2742 
Q 2381 3103 1925 3103 
Q 1469 3103 1208 2742 
Q 947 2381 947 1747 
z
" transform="scale(0.015625)"/>
       </defs>
       <use xlink:href="#DejaVuSans-43"/>
       <use xlink:href="#DejaVuSans-44" x="69.824219"/>
       <use xlink:href="#DejaVuSans-52" x="146.826172"/>
       <use xlink:href="#DejaVuSans-20" x="216.308594"/>
       <use xlink:href="#DejaVuSans-6d" x="248.095703"/>
       <use xlink:href="#DejaVuSans-65" x="345.507812"/>
       <use xlink:href="#DejaVuSans-61" x="407.03125"/>
       <use xlink:href="#DejaVuSans-6e" x="468.310547"/>
       <use xlink:href="#DejaVuSans-2b" x="531.689453"/>
       <use xlink:href="#DejaVuSans-73" x="615.478516"/>
       <use xlink:href="#DejaVuSans-74" x="667.578125"/>
       <use xlink:href="#DejaVuSans-64" x="706.787109"/>
      </g>
     </g>
    </g>
   </g>
   <g id="matplotlib.axis_2">
    <g id="ytick_1">
     <g id="line2d_5">
      <path d="M 44.1025 281.810361 
L 575.0525 281.810361 
" clip-path="url(#pac04f081b0)" style="fill: none; stroke: #e8e8e8; stroke-width: 0.8; stroke-linecap: square"/>
     </g>
     <g id="line2d_6">
      <defs>
       <path id="m7b44e3be1c" d="M 0 0 
L -3.5 0 
" style="stroke: #000000; stroke-width: 0.8"/>
      </defs>
      <g>
       <use xlink:href="#m7b44e3be1c" x="44.1025" y="281.810361" style="stroke: #000000; stroke-width: 0.8"/>
      </g>
     </g>
     <g id="text_5">
      <!-- 1 -->
      <g transform="translate(31.694375 285.039697) scale(0.085 -0.085)">
       <defs>
        <path id="DejaVuSans-31" d="M 794 531 
L 1825 531 
L 1825 4091 
L 703 3866 
L 703 4441 
L 1819 4666 
L 2450 4666 
L 2450 531 
L 3481 531 
L 3481 0 
L 794 0 
L 794 531 
z
" transform="scale(0.015625)"/>
       </defs>
       <use xlink:href="#DejaVuSans-31"/>
      </g>
     </g>
    </g>
    <g id="ytick_2">
     <g id="line2d_7">
      <path d="M 44.1025 245.913453 
L 575.0525 245.913453 
" clip-path="url(#pac04f081b0)" style="fill: none; stroke: #e8e8e8; stroke-width: 0.8; stroke-linecap: square"/>
     </g>
     <g id="line2d_8">
      <g>
       <use xlink:href="#m7b44e3be1c" x="44.1025" y="245.913453" style="stroke: #000000; stroke-width: 0.8"/>
      </g>
     </g>
     <g id="text_6">
      <!-- 2 -->
      <g transform="translate(31.694375 249.142789) scale(0.085 -0.085)">
       <defs>
        <path id="DejaVuSans-32" d="M 1228 531 
L 3431 531 
L 3431 0 
L 469 0 
L 469 531 
Q 828 903 1448 1529 
Q 2069 2156 2228 2338 
Q 2531 2678 2651 2914 
Q 2772 3150 2772 3378 
Q 2772 3750 2511 3984 
Q 2250 4219 1831 4219 
Q 1534 4219 1204 4116 
Q 875 4013 500 3803 
L 500 4441 
Q 881 4594 1212 4672 
Q 1544 4750 1819 4750 
Q 2544 4750 2975 4387 
Q 3406 4025 3406 3419 
Q 3406 3131 3298 2873 
Q 3191 2616 2906 2266 
Q 2828 2175 2409 1742 
Q 1991 1309 1228 531 
z
" transform="scale(0.015625)"/>
       </defs>
       <use xlink:href="#DejaVuSans-32"/>
      </g>
     </g>
    </g>
    <g id="ytick_3">
     <g id="line2d_9">
      <path d="M 44.1025 198.460323 
L 575.0525 198.460323 
" clip-path="url(#pac04f081b0)" style="fill: none; stroke: #e8e8e8; stroke-width: 0.8; stroke-linecap: square"/>
     </g>
     <g id="line2d_10">
      <g>
       <use xlink:href="#m7b44e3be1c" x="44.1025" y="198.460323" style="stroke: #000000; stroke-width: 0.8"/>
      </g>
     </g>
     <g id="text_7">
      <!-- 5 -->
      <g transform="translate(31.694375 201.689659) scale(0.085 -0.085)">
       <defs>
        <path id="DejaVuSans-35" d="M 691 4666 
L 3169 4666 
L 3169 4134 
L 1269 4134 
L 1269 2991 
Q 1406 3038 1543 3061 
Q 1681 3084 1819 3084 
Q 2600 3084 3056 2656 
Q 3513 2228 3513 1497 
Q 3513 744 3044 326 
Q 2575 -91 1722 -91 
Q 1428 -91 1123 -41 
Q 819 9 494 109 
L 494 744 
Q 775 591 1075 516 
Q 1375 441 1709 441 
Q 2250 441 2565 725 
Q 2881 1009 2881 1497 
Q 2881 1984 2565 2268 
Q 2250 2553 1709 2553 
Q 1456 2553 1204 2497 
Q 953 2441 691 2322 
L 691 4666 
z
" transform="scale(0.015625)"/>
       </defs>
       <use xlink:href="#DejaVuSans-35"/>
      </g>
     </g>
    </g>
    <g id="ytick_4">
     <g id="line2d_11">
      <path d="M 44.1025 162.563415 
L 575.0525 162.563415 
" clip-path="url(#pac04f081b0)" style="fill: none; stroke: #e8e8e8; stroke-width: 0.8; stroke-linecap: square"/>
     </g>
     <g id="line2d_12">
      <g>
       <use xlink:href="#m7b44e3be1c" x="44.1025" y="162.563415" style="stroke: #000000; stroke-width: 0.8"/>
      </g>
     </g>
     <g id="text_8">
      <!-- 10 -->
      <g transform="translate(26.28625 165.792751) scale(0.085 -0.085)">
       <defs>
        <path id="DejaVuSans-30" d="M 2034 4250 
Q 1547 4250 1301 3770 
Q 1056 3291 1056 2328 
Q 1056 1369 1301 889 
Q 1547 409 2034 409 
Q 2525 409 2770 889 
Q 3016 1369 3016 2328 
Q 3016 3291 2770 3770 
Q 2525 4250 2034 4250 
z
M 2034 4750 
Q 2819 4750 3233 4129 
Q 3647 3509 3647 2328 
Q 3647 1150 3233 529 
Q 2819 -91 2034 -91 
Q 1250 -91 836 529 
Q 422 1150 422 2328 
Q 422 3509 836 4129 
Q 1250 4750 2034 4750 
z
" transform="scale(0.015625)"/>
       </defs>
       <use xlink:href="#DejaVuSans-31"/>
       <use xlink:href="#DejaVuSans-30" x="63.623047"/>
      </g>
     </g>
    </g>
    <g id="ytick_5">
     <g id="line2d_13">
      <path d="M 44.1025 126.666508 
L 575.0525 126.666508 
" clip-path="url(#pac04f081b0)" style="fill: none; stroke: #e8e8e8; stroke-width: 0.8; stroke-linecap: square"/>
     </g>
     <g id="line2d_14">
      <g>
       <use xlink:href="#m7b44e3be1c" x="44.1025" y="126.666508" style="stroke: #000000; stroke-width: 0.8"/>
      </g>
     </g>
     <g id="text_9">
      <!-- 20 -->
      <g transform="translate(26.28625 129.895844) scale(0.085 -0.085)">
       <use xlink:href="#DejaVuSans-32"/>
       <use xlink:href="#DejaVuSans-30" x="63.623047"/>
      </g>
     </g>
    </g>
    <g id="ytick_6">
     <g id="line2d_15">
      <path d="M 44.1025 79.213377 
L 575.0525 79.213377 
" clip-path="url(#pac04f081b0)" style="fill: none; stroke: #e8e8e8; stroke-width: 0.8; stroke-linecap: square"/>
     </g>
     <g id="line2d_16">
      <g>
       <use xlink:href="#m7b44e3be1c" x="44.1025" y="79.213377" style="stroke: #000000; stroke-width: 0.8"/>
      </g>
     </g>
     <g id="text_10">
      <!-- 50 -->
      <g transform="translate(26.28625 82.442713) scale(0.085 -0.085)">
       <use xlink:href="#DejaVuSans-35"/>
       <use xlink:href="#DejaVuSans-30" x="63.623047"/>
      </g>
     </g>
    </g>
    <g id="ytick_7">
     <g id="line2d_17">
      <path d="M 44.1025 43.31647 
L 575.0525 43.31647 
" clip-path="url(#pac04f081b0)" style="fill: none; stroke: #e8e8e8; stroke-width: 0.8; stroke-linecap: square"/>
     </g>
     <g id="line2d_18">
      <g>
       <use xlink:href="#m7b44e3be1c" x="44.1025" y="43.31647" style="stroke: #000000; stroke-width: 0.8"/>
      </g>
     </g>
     <g id="text_11">
      <!-- 100 -->
      <g transform="translate(20.878125 46.545806) scale(0.085 -0.085)">
       <use xlink:href="#DejaVuSans-31"/>
       <use xlink:href="#DejaVuSans-30" x="63.623047"/>
       <use xlink:href="#DejaVuSans-30" x="127.246094"/>
      </g>
     </g>
    </g>
    <g id="ytick_8">
     <g id="line2d_19">
      <path d="M 44.1025 22.318125 
L 575.0525 22.318125 
" clip-path="url(#pac04f081b0)" style="fill: none; stroke: #e8e8e8; stroke-width: 0.8; stroke-linecap: square"/>
     </g>
     <g id="line2d_20">
      <g>
       <use xlink:href="#m7b44e3be1c" x="44.1025" y="22.318125" style="stroke: #000000; stroke-width: 0.8"/>
      </g>
     </g>
     <g id="text_12">
      <!-- 150 -->
      <g transform="translate(20.878125 25.547461) scale(0.085 -0.085)">
       <use xlink:href="#DejaVuSans-31"/>
       <use xlink:href="#DejaVuSans-35" x="63.623047"/>
       <use xlink:href="#DejaVuSans-30" x="127.246094"/>
      </g>
     </g>
    </g>
    <g id="ytick_9">
     <g id="line2d_21">
      <defs>
       <path id="me33e4d2850" d="M 0 0 
L -2 0 
" style="stroke: #000000; stroke-width: 0.6"/>
      </defs>
      <g>
       <use xlink:href="#me33e4d2850" x="44.1025" y="293.366584" style="stroke: #000000; stroke-width: 0.6"/>
      </g>
     </g>
    </g>
    <g id="ytick_10">
     <g id="line2d_22">
      <g>
       <use xlink:href="#me33e4d2850" x="44.1025" y="287.266802" style="stroke: #000000; stroke-width: 0.6"/>
      </g>
     </g>
    </g>
    <g id="ytick_11">
     <g id="line2d_23">
      <g>
       <use xlink:href="#me33e4d2850" x="44.1025" y="224.915108" style="stroke: #000000; stroke-width: 0.6"/>
      </g>
     </g>
    </g>
    <g id="ytick_12">
     <g id="line2d_24">
      <g>
       <use xlink:href="#me33e4d2850" x="44.1025" y="210.016546" style="stroke: #000000; stroke-width: 0.6"/>
      </g>
     </g>
    </g>
    <g id="ytick_13">
     <g id="line2d_25">
      <g>
       <use xlink:href="#me33e4d2850" x="44.1025" y="189.018201" style="stroke: #000000; stroke-width: 0.6"/>
      </g>
     </g>
    </g>
    <g id="ytick_14">
     <g id="line2d_26">
      <g>
       <use xlink:href="#me33e4d2850" x="44.1025" y="181.035001" style="stroke: #000000; stroke-width: 0.6"/>
      </g>
     </g>
    </g>
    <g id="ytick_15">
     <g id="line2d_27">
      <g>
       <use xlink:href="#me33e4d2850" x="44.1025" y="174.119638" style="stroke: #000000; stroke-width: 0.6"/>
      </g>
     </g>
    </g>
    <g id="ytick_16">
     <g id="line2d_28">
      <g>
       <use xlink:href="#me33e4d2850" x="44.1025" y="168.019856" style="stroke: #000000; stroke-width: 0.6"/>
      </g>
     </g>
    </g>
    <g id="ytick_17">
     <g id="line2d_29">
      <g>
       <use xlink:href="#me33e4d2850" x="44.1025" y="105.668163" style="stroke: #000000; stroke-width: 0.6"/>
      </g>
     </g>
    </g>
    <g id="ytick_18">
     <g id="line2d_30">
      <g>
       <use xlink:href="#me33e4d2850" x="44.1025" y="90.7696" style="stroke: #000000; stroke-width: 0.6"/>
      </g>
     </g>
    </g>
    <g id="ytick_19">
     <g id="line2d_31">
      <g>
       <use xlink:href="#me33e4d2850" x="44.1025" y="69.771256" style="stroke: #000000; stroke-width: 0.6"/>
      </g>
     </g>
    </g>
    <g id="ytick_20">
     <g id="line2d_32">
      <g>
       <use xlink:href="#me33e4d2850" x="44.1025" y="61.788055" style="stroke: #000000; stroke-width: 0.6"/>
      </g>
     </g>
    </g>
    <g id="ytick_21">
     <g id="line2d_33">
      <g>
       <use xlink:href="#me33e4d2850" x="44.1025" y="54.872693" style="stroke: #000000; stroke-width: 0.6"/>
      </g>
     </g>
    </g>
    <g id="ytick_22">
     <g id="line2d_34">
      <g>
       <use xlink:href="#me33e4d2850" x="44.1025" y="48.772911" style="stroke: #000000; stroke-width: 0.6"/>
      </g>
     </g>
    </g>
    <g id="text_13">
     <!-- First positive rank, log scale -->
     <g transform="translate(14.798438 227.932018) rotate(-90) scale(0.1 -0.1)">
      <defs>
       <path id="DejaVuSans-46" d="M 628 4666 
L 3309 4666 
L 3309 4134 
L 1259 4134 
L 1259 2759 
L 3109 2759 
L 3109 2228 
L 1259 2228 
L 1259 0 
L 628 0 
L 628 4666 
z
" transform="scale(0.015625)"/>
       <path id="DejaVuSans-69" d="M 603 3500 
L 1178 3500 
L 1178 0 
L 603 0 
L 603 3500 
z
M 603 4863 
L 1178 4863 
L 1178 4134 
L 603 4134 
L 603 4863 
z
" transform="scale(0.015625)"/>
       <path id="DejaVuSans-72" d="M 2631 2963 
Q 2534 3019 2420 3045 
Q 2306 3072 2169 3072 
Q 1681 3072 1420 2755 
Q 1159 2438 1159 1844 
L 1159 0 
L 581 0 
L 581 3500 
L 1159 3500 
L 1159 2956 
Q 1341 3275 1631 3429 
Q 1922 3584 2338 3584 
Q 2397 3584 2469 3576 
Q 2541 3569 2628 3553 
L 2631 2963 
z
" transform="scale(0.015625)"/>
       <path id="DejaVuSans-70" d="M 1159 525 
L 1159 -1331 
L 581 -1331 
L 581 3500 
L 1159 3500 
L 1159 2969 
Q 1341 3281 1617 3432 
Q 1894 3584 2278 3584 
Q 2916 3584 3314 3078 
Q 3713 2572 3713 1747 
Q 3713 922 3314 415 
Q 2916 -91 2278 -91 
Q 1894 -91 1617 61 
Q 1341 213 1159 525 
z
M 3116 1747 
Q 3116 2381 2855 2742 
Q 2594 3103 2138 3103 
Q 1681 3103 1420 2742 
Q 1159 2381 1159 1747 
Q 1159 1113 1420 752 
Q 1681 391 2138 391 
Q 2594 391 2855 752 
Q 3116 1113 3116 1747 
z
" transform="scale(0.015625)"/>
       <path id="DejaVuSans-76" d="M 191 3500 
L 800 3500 
L 1894 563 
L 2988 3500 
L 3597 3500 
L 2284 0 
L 1503 0 
L 191 3500 
z
" transform="scale(0.015625)"/>
       <path id="DejaVuSans-6b" d="M 581 4863 
L 1159 4863 
L 1159 1991 
L 2875 3500 
L 3609 3500 
L 1753 1863 
L 3688 0 
L 2938 0 
L 1159 1709 
L 1159 0 
L 581 0 
L 581 4863 
z
" transform="scale(0.015625)"/>
       <path id="DejaVuSans-2c" d="M 750 794 
L 1409 794 
L 1409 256 
L 897 -744 
L 494 -744 
L 750 256 
L 750 794 
z
" transform="scale(0.015625)"/>
       <path id="DejaVuSans-67" d="M 2906 1791 
Q 2906 2416 2648 2759 
Q 2391 3103 1925 3103 
Q 1463 3103 1205 2759 
Q 947 2416 947 1791 
Q 947 1169 1205 825 
Q 1463 481 1925 481 
Q 2391 481 2648 825 
Q 2906 1169 2906 1791 
z
M 3481 434 
Q 3481 -459 3084 -895 
Q 2688 -1331 1869 -1331 
Q 1566 -1331 1297 -1286 
Q 1028 -1241 775 -1147 
L 775 -588 
Q 1028 -725 1275 -790 
Q 1522 -856 1778 -856 
Q 2344 -856 2625 -561 
Q 2906 -266 2906 331 
L 2906 616 
Q 2728 306 2450 153 
Q 2172 0 1784 0 
Q 1141 0 747 490 
Q 353 981 353 1791 
Q 353 2603 747 3093 
Q 1141 3584 1784 3584 
Q 2172 3584 2450 3431 
Q 2728 3278 2906 2969 
L 2906 3500 
L 3481 3500 
L 3481 434 
z
" transform="scale(0.015625)"/>
       <path id="DejaVuSans-63" d="M 3122 3366 
L 3122 2828 
Q 2878 2963 2633 3030 
Q 2388 3097 2138 3097 
Q 1578 3097 1268 2742 
Q 959 2388 959 1747 
Q 959 1106 1268 751 
Q 1578 397 2138 397 
Q 2388 397 2633 464 
Q 2878 531 3122 666 
L 3122 134 
Q 2881 22 2623 -34 
Q 2366 -91 2075 -91 
Q 1284 -91 818 406 
Q 353 903 353 1747 
Q 353 2603 823 3093 
Q 1294 3584 2113 3584 
Q 2378 3584 2631 3529 
Q 2884 3475 3122 3366 
z
" transform="scale(0.015625)"/>
      </defs>
      <use xlink:href="#DejaVuSans-46"/>
      <use xlink:href="#DejaVuSans-69" x="50.269531"/>
      <use xlink:href="#DejaVuSans-72" x="78.052734"/>
      <use xlink:href="#DejaVuSans-73" x="119.166016"/>
      <use xlink:href="#DejaVuSans-74" x="171.265625"/>
      <use xlink:href="#DejaVuSans-20" x="210.474609"/>
      <use xlink:href="#DejaVuSans-70" x="242.261719"/>
      <use xlink:href="#DejaVuSans-6f" x="305.738281"/>
      <use xlink:href="#DejaVuSans-73" x="366.919922"/>
      <use xlink:href="#DejaVuSans-69" x="419.019531"/>
      <use xlink:href="#DejaVuSans-74" x="446.802734"/>
      <use xlink:href="#DejaVuSans-69" x="486.011719"/>
      <use xlink:href="#DejaVuSans-76" x="513.794922"/>
      <use xlink:href="#DejaVuSans-65" x="572.974609"/>
      <use xlink:href="#DejaVuSans-20" x="634.498047"/>
      <use xlink:href="#DejaVuSans-72" x="666.285156"/>
      <use xlink:href="#DejaVuSans-61" x="707.398438"/>
      <use xlink:href="#DejaVuSans-6e" x="768.677734"/>
      <use xlink:href="#DejaVuSans-6b" x="832.056641"/>
      <use xlink:href="#DejaVuSans-2c" x="889.966797"/>
      <use xlink:href="#DejaVuSans-20" x="921.753906"/>
      <use xlink:href="#DejaVuSans-6c" x="953.541016"/>
      <use xlink:href="#DejaVuSans-6f" x="981.324219"/>
      <use xlink:href="#DejaVuSans-67" x="1042.505859"/>
      <use xlink:href="#DejaVuSans-20" x="1105.982422"/>
      <use xlink:href="#DejaVuSans-73" x="1137.769531"/>
      <use xlink:href="#DejaVuSans-63" x="1189.869141"/>
      <use xlink:href="#DejaVuSans-61" x="1244.849609"/>
      <use xlink:href="#DejaVuSans-6c" x="1306.128906"/>
      <use xlink:href="#DejaVuSans-65" x="1333.912109"/>
     </g>
    </g>
   </g>
   <g id="PolyCollection_1">
    <defs>
     <path id="m835c134e9a" d="M 160.111537 -56.51816 
L 69.783932 -56.51816 
L 68.815201 -93.450868 
L 68.296548 -114.789926 
L 68.236591 -129.858009 
L 68.629313 -141.515678 
L 69.454566 -151.02532 
L 70.679321 -159.056696 
L 72.259556 -166.00816 
L 74.14263 -172.136004 
L 76.269979 -177.614884 
L 78.57992 -182.569186 
L 81.010404 -187.090645 
L 83.501526 -191.248853 
L 85.997679 -195.09786 
L 88.449243 -198.680486 
L 90.813762 -202.031227 
L 93.056623 -205.178284 
L 95.151235 -208.145007 
L 97.078808 -210.950949 
L 98.827796 -213.612645 
L 100.393101 -216.144201 
L 101.775142 -218.557755 
L 102.978868 -220.863817 
L 104.012789 -223.071556 
L 104.88808 -225.189015 
L 105.617797 -227.223287 
L 106.216213 -229.180664 
L 106.698283 -231.066746 
L 107.079223 -232.886545 
L 107.37418 -234.644564 
L 107.597982 -236.344858 
L 107.764926 -237.991099 
L 107.888607 -239.586617 
L 107.981751 -241.134446 
L 108.056065 -242.637352 
L 108.122085 -244.097872 
L 108.189037 -245.51833 
L 108.264709 -246.900864 
L 108.355359 -248.247449 
L 108.465648 -249.559905 
L 108.598628 -250.839921 
L 108.755776 -252.089061 
L 108.937089 -253.30878 
L 109.141219 -254.500432 
L 109.365667 -255.665279 
L 109.607005 -256.804502 
L 109.861117 -257.919202 
L 110.123462 -259.010415 
L 110.389315 -260.079108 
L 110.654005 -261.126193 
L 110.913113 -262.152527 
L 111.16264 -263.158915 
L 111.399128 -264.146119 
L 111.619744 -265.114856 
L 111.82232 -266.065804 
L 112.005358 -266.999605 
L 112.168006 -267.916866 
L 112.310007 -268.818164 
L 112.431641 -269.704043 
L 112.533652 -270.575024 
L 112.617175 -271.431598 
L 112.683668 -272.274234 
L 112.734845 -273.10338 
L 112.772616 -273.91946 
L 112.79904 -274.722879 
L 112.81627 -275.514024 
L 112.826509 -276.293265 
L 112.831964 -277.060955 
L 112.834793 -277.817431 
L 112.837053 -278.563015 
L 112.840639 -279.298018 
L 112.847224 -280.022735 
L 112.858192 -280.737451 
L 112.87458 -281.442437 
L 112.897027 -282.137955 
L 112.925734 -282.824255 
L 112.960444 -283.50158 
L 113.000446 -284.17016 
L 113.044605 -284.830219 
L 113.09142 -285.481971 
L 113.139112 -286.125623 
L 113.185727 -286.761373 
L 113.229269 -287.389413 
L 113.267833 -288.009928 
L 113.299743 -288.623096 
L 113.323682 -289.229089 
L 113.338805 -289.828073 
L 113.344818 -290.420209 
L 113.342028 -291.00565 
L 113.331352 -291.584548 
L 113.314282 -292.157046 
L 113.292814 -292.723284 
L 113.269337 -293.283398 
L 113.246497 -293.837519 
L 113.227037 -294.385773 
L 113.213637 -294.928285 
L 113.208751 -295.465172 
L 113.214462 -295.99655 
L 113.232362 -296.522531 
L 113.263468 -297.043224 
L 116.632001 -297.043224 
L 116.632001 -297.043224 
L 116.663108 -296.522531 
L 116.681008 -295.99655 
L 116.686718 -295.465172 
L 116.681832 -294.928285 
L 116.668432 -294.385773 
L 116.648973 -293.837519 
L 116.626132 -293.283398 
L 116.602655 -292.723284 
L 116.581187 -292.157046 
L 116.564117 -291.584548 
L 116.553441 -291.00565 
L 116.550651 -290.420209 
L 116.556664 -289.828073 
L 116.571787 -289.229089 
L 116.595727 -288.623096 
L 116.627636 -288.009928 
L 116.6662 -287.389413 
L 116.709742 -286.761373 
L 116.756357 -286.125623 
L 116.804049 -285.481971 
L 116.850865 -284.830219 
L 116.895023 -284.17016 
L 116.935025 -283.50158 
L 116.969735 -282.824255 
L 116.998442 -282.137955 
L 117.020889 -281.442437 
L 117.037278 -280.737451 
L 117.048245 -280.022735 
L 117.05483 -279.298018 
L 117.058416 -278.563015 
L 117.060676 -277.817431 
L 117.063506 -277.060955 
L 117.06896 -276.293265 
L 117.0792 -275.514024 
L 117.096429 -274.722879 
L 117.122853 -273.91946 
L 117.160625 -273.10338 
L 117.211801 -272.274234 
L 117.278294 -271.431598 
L 117.361817 -270.575024 
L 117.463828 -269.704043 
L 117.585462 -268.818164 
L 117.727464 -267.916866 
L 117.890111 -266.999605 
L 118.07315 -266.065804 
L 118.275726 -265.114856 
L 118.496342 -264.146119 
L 118.732829 -263.158915 
L 118.982356 -262.152527 
L 119.241464 -261.126193 
L 119.506154 -260.079108 
L 119.772008 -259.010415 
L 120.034352 -257.919202 
L 120.288465 -256.804502 
L 120.529802 -255.665279 
L 120.754251 -254.500432 
L 120.958381 -253.30878 
L 121.139693 -252.089061 
L 121.296841 -250.839921 
L 121.429821 -249.559905 
L 121.54011 -248.247449 
L 121.63076 -246.900864 
L 121.706432 -245.51833 
L 121.773384 -244.097872 
L 121.839405 -242.637352 
L 121.913719 -241.134446 
L 122.006862 -239.586617 
L 122.130543 -237.991099 
L 122.297487 -236.344858 
L 122.521289 -234.644564 
L 122.816247 -232.886545 
L 123.197186 -231.066746 
L 123.679257 -229.180664 
L 124.277672 -227.223287 
L 125.007389 -225.189015 
L 125.882681 -223.071556 
L 126.916601 -220.863817 
L 128.120327 -218.557755 
L 129.502369 -216.144201 
L 131.067673 -213.612645 
L 132.816661 -210.950949 
L 134.744234 -208.145007 
L 136.838846 -205.178284 
L 139.081707 -202.031227 
L 141.446227 -198.680486 
L 143.89779 -195.09786 
L 146.393943 -191.248853 
L 148.885065 -187.090645 
L 151.315549 -182.569186 
L 153.62549 -177.614884 
L 155.752839 -172.136004 
L 157.635913 -166.00816 
L 159.216148 -159.056696 
L 160.440903 -151.02532 
L 161.266156 -141.515678 
L 161.658878 -129.858009 
L 161.598922 -114.789926 
L 161.080268 -93.450868 
L 160.111537 -56.51816 
z
" style="stroke: #3c5f5b; stroke-opacity: 0.75"/>
    </defs>
    <g clip-path="url(#pac04f081b0)">
     <use xlink:href="#m835c134e9a" x="0" y="338.32852" style="fill: #72b7b2; fill-opacity: 0.75; stroke: #3c5f5b; stroke-opacity: 0.75"/>
    </g>
   </g>
   <g id="PolyCollection_2">
    <defs>
     <path id="mb80cb05587" d="M 291.213578 -56.51816 
L 198.188245 -56.51816 
L 197.989768 -95.215116 
L 198.384483 -117.11415 
L 199.352873 -132.45725 
L 200.853711 -144.278375 
L 202.826849 -153.896348 
L 205.197124 -162.004792 
L 207.879022 -169.013889 
L 210.781711 -175.186459 
L 213.814027 -180.701056 
L 216.889038 -185.684542 
L 219.927886 -190.230291 
L 222.862702 -194.409031 
L 225.638474 -198.275624 
L 228.213886 -201.87348 
L 230.561192 -205.237538 
L 232.665304 -208.39634 
L 234.522274 -211.373498 
L 236.137389 -214.188772 
L 237.523102 -216.858863 
L 238.696953 -219.398013 
L 239.67965 -221.818467 
L 240.493404 -224.130828 
L 241.160571 -226.34434 
L 241.702625 -228.467108 
L 242.139455 -230.506281 
L 242.488943 -232.468193 
L 242.766781 -234.358486 
L 242.986465 -236.182206 
L 243.159426 -237.943882 
L 243.295225 -239.647598 
L 243.401797 -241.297046 
L 243.485685 -242.895577 
L 243.552265 -244.446241 
L 243.60593 -245.95182 
L 243.650233 -247.414864 
L 243.688002 -248.837708 
L 243.721411 -250.222504 
L 243.752039 -251.571234 
L 243.780906 -252.885728 
L 243.808521 -254.167682 
L 243.834927 -255.418668 
L 243.859759 -256.640146 
L 243.88233 -257.833478 
L 243.901718 -258.99993 
L 243.916873 -260.140687 
L 243.92673 -261.256858 
L 243.930318 -262.349478 
L 243.926857 -263.419522 
L 243.915849 -264.467904 
L 243.897124 -265.495483 
L 243.870886 -266.503069 
L 243.8377 -267.491425 
L 243.798479 -268.461272 
L 243.754424 -269.413289 
L 243.706954 -270.348121 
L 243.657626 -271.266377 
L 243.608043 -272.168635 
L 243.559766 -273.055443 
L 243.514233 -273.92732 
L 243.472696 -274.784762 
L 243.436168 -275.628238 
L 243.405395 -276.458196 
L 243.380845 -277.275063 
L 243.362719 -278.079245 
L 243.350973 -278.871131 
L 243.345361 -279.651089 
L 243.345474 -280.419476 
L 243.350801 -281.176628 
L 243.360766 -281.92287 
L 243.37478 -282.658511 
L 243.392269 -283.383849 
L 243.412692 -284.099169 
L 243.435546 -284.804742 
L 243.460352 -285.500832 
L 243.486634 -286.187689 
L 243.513877 -286.865556 
L 243.541497 -287.534665 
L 243.568803 -288.195239 
L 243.594971 -288.847493 
L 243.619042 -289.491634 
L 243.639933 -290.127862 
L 243.656484 -290.756368 
L 243.66752 -291.377338 
L 243.671941 -291.990951 
L 243.668828 -292.597378 
L 243.657556 -293.196786 
L 243.63789 -293.789336 
L 243.610084 -294.375183 
L 243.574927 -294.954476 
L 243.533771 -295.527361 
L 243.4885 -296.093978 
L 243.441458 -296.654463 
L 243.395333 -297.208947 
L 243.353002 -297.757557 
L 243.317355 -298.300416 
L 243.291107 -298.837644 
L 243.276618 -299.369356 
L 243.275731 -299.895664 
L 243.289649 -300.416677 
L 246.112174 -300.416677 
L 246.112174 -300.416677 
L 246.126092 -299.895664 
L 246.125205 -299.369356 
L 246.110716 -298.837644 
L 246.084468 -298.300416 
L 246.048822 -297.757557 
L 246.00649 -297.208947 
L 245.960365 -296.654463 
L 245.913323 -296.093978 
L 245.868052 -295.527361 
L 245.826896 -294.954476 
L 245.791739 -294.375183 
L 245.763933 -293.789336 
L 245.744267 -293.196786 
L 245.732995 -292.597378 
L 245.729882 -291.990951 
L 245.734303 -291.377338 
L 245.745339 -290.756368 
L 245.76189 -290.127862 
L 245.782781 -289.491634 
L 245.806852 -288.847493 
L 245.83302 -288.195239 
L 245.860326 -287.534665 
L 245.887946 -286.865556 
L 245.915189 -286.187689 
L 245.941471 -285.500832 
L 245.966277 -284.804742 
L 245.989131 -284.099169 
L 246.009555 -283.383849 
L 246.027043 -282.658511 
L 246.041057 -281.92287 
L 246.051023 -281.176628 
L 246.056349 -280.419476 
L 246.056462 -279.651089 
L 246.05085 -278.871131 
L 246.039104 -278.079245 
L 246.020978 -277.275063 
L 245.996429 -276.458196 
L 245.965655 -275.628238 
L 245.929127 -274.784762 
L 245.88759 -273.92732 
L 245.842057 -273.055443 
L 245.79378 -272.168635 
L 245.744197 -271.266377 
L 245.694869 -270.348121 
L 245.647399 -269.413289 
L 245.603344 -268.461272 
L 245.564123 -267.491425 
L 245.530937 -266.503069 
L 245.504699 -265.495483 
L 245.485975 -264.467904 
L 245.474966 -263.419522 
L 245.471506 -262.349478 
L 245.475093 -261.256858 
L 245.48495 -260.140687 
L 245.500105 -258.99993 
L 245.519493 -257.833478 
L 245.542064 -256.640146 
L 245.566896 -255.418668 
L 245.593302 -254.167682 
L 245.620917 -252.885728 
L 245.649784 -251.571234 
L 245.680412 -250.222504 
L 245.713821 -248.837708 
L 245.75159 -247.414864 
L 245.795893 -245.95182 
L 245.849558 -244.446241 
L 245.916138 -242.895577 
L 246.000026 -241.297046 
L 246.106598 -239.647598 
L 246.242397 -237.943882 
L 246.415358 -236.182206 
L 246.635042 -234.358486 
L 246.91288 -232.468193 
L 247.262368 -230.506281 
L 247.699199 -228.467108 
L 248.241252 -226.34434 
L 248.908419 -224.130828 
L 249.722173 -221.818467 
L 250.70487 -219.398013 
L 251.878721 -216.858863 
L 253.264434 -214.188772 
L 254.87955 -211.373498 
L 256.736519 -208.39634 
L 258.840631 -205.237538 
L 261.187937 -201.87348 
L 263.763349 -198.275624 
L 266.539121 -194.409031 
L 269.473937 -190.230291 
L 272.512785 -185.684542 
L 275.587796 -180.701056 
L 278.620112 -175.186459 
L 281.522801 -169.013889 
L 284.204699 -162.004792 
L 286.574974 -153.896348 
L 288.548112 -144.278375 
L 290.04895 -132.45725 
L 291.01734 -117.11415 
L 291.412055 -95.215116 
L 291.213578 -56.51816 
z
" style="stroke: #3c5f5b; stroke-opacity: 0.75"/>
    </defs>
    <g clip-path="url(#pac04f081b0)">
     <use xlink:href="#mb80cb05587" x="0" y="338.32852" style="fill: #72b7b2; fill-opacity: 0.75; stroke: #3c5f5b; stroke-opacity: 0.75"/>
    </g>
   </g>
   <g id="PolyCollection_3">
    <defs>
     <path id="m0cd474ff59" d="M 420.545226 -56.51816 
L 328.362951 -56.51816 
L 327.742945 -75.922893 
L 327.834713 -90.005875 
L 328.623558 -101.066513 
L 330.061421 -110.17559 
L 332.070773 -117.919582 
L 334.550672 -124.654812 
L 337.384334 -130.614055 
L 340.447436 -135.957791 
L 343.616346 -140.801345 
L 346.77554 -145.230392 
L 349.823642 -149.310319 
L 352.677724 -153.092166 
L 355.275701 -156.616539 
L 357.576919 -159.916272 
L 359.561148 -163.018294 
L 361.226338 -165.944965 
L 362.58555 -168.715053 
L 363.663441 -171.344465 
L 364.49269 -173.846801 
L 365.11062 -176.233781 
L 365.556235 -178.515572 
L 365.867795 -180.701056 
L 366.080957 -182.798035 
L 366.2275 -184.813398 
L 366.334566 -186.753261 
L 366.424368 -188.623077 
L 366.514264 -190.42773 
L 366.617115 -192.171608 
L 366.741842 -193.858672 
L 366.894078 -195.492508 
L 367.076864 -197.076371 
L 367.291288 -198.613228 
L 367.537042 -200.10579 
L 367.812841 -201.556537 
L 368.116706 -202.967749 
L 368.446109 -204.341525 
L 368.798004 -205.679798 
L 369.168798 -206.984358 
L 369.554288 -208.256861 
L 369.949624 -209.498846 
L 370.349327 -210.711742 
L 370.747391 -211.896881 
L 371.137466 -213.055504 
L 371.513117 -214.188772 
L 371.868137 -215.297771 
L 372.196883 -216.383519 
L 372.494585 -217.446971 
L 372.757621 -218.489024 
L 372.983709 -219.510523 
L 373.172012 -220.512262 
L 373.32315 -221.494991 
L 373.439115 -222.459419 
L 373.523107 -223.406215 
L 373.579308 -224.336012 
L 373.612601 -225.249409 
L 373.628271 -226.146976 
L 373.631685 -227.029251 
L 373.628 -227.896747 
L 373.621881 -228.74995 
L 373.61727 -229.589325 
L 373.617212 -230.415312 
L 373.623738 -231.228332 
L 373.637825 -232.028785 
L 373.659426 -232.817054 
L 373.68757 -233.593505 
L 373.720514 -234.358486 
L 373.755955 -235.112332 
L 373.791259 -235.855362 
L 373.823715 -236.587882 
L 373.850768 -237.310185 
L 373.870241 -238.022552 
L 373.880514 -238.725253 
L 373.880643 -239.418547 
L 373.87043 -240.102683 
L 373.850425 -240.777898 
L 373.821862 -241.444423 
L 373.786542 -242.102479 
L 373.746671 -242.752278 
L 373.704657 -243.394025 
L 373.662901 -244.027916 
L 373.623588 -244.654143 
L 373.588508 -245.272887 
L 373.558918 -245.884326 
L 373.535469 -246.48863 
L 373.518192 -247.085964 
L 373.506568 -247.676487 
L 373.499648 -248.260352 
L 373.496228 -248.837708 
L 373.495048 -249.408699 
L 373.494989 -249.973462 
L 373.49525 -250.532133 
L 373.495474 -251.084841 
L 373.495813 -251.631713 
L 373.496916 -252.172871 
L 373.499851 -252.708432 
L 373.505973 -253.238511 
L 373.516744 -253.763219 
L 373.533542 -254.282665 
L 373.557486 -254.796952 
L 375.350691 -254.796952 
L 375.350691 -254.796952 
L 375.374635 -254.282665 
L 375.391433 -253.763219 
L 375.402204 -253.238511 
L 375.408326 -252.708432 
L 375.411261 -252.172871 
L 375.412364 -251.631713 
L 375.412702 -251.084841 
L 375.412927 -250.532133 
L 375.413188 -249.973462 
L 375.413129 -249.408699 
L 375.411948 -248.837708 
L 375.408529 -248.260352 
L 375.401609 -247.676487 
L 375.389985 -247.085964 
L 375.372708 -246.48863 
L 375.349258 -245.884326 
L 375.319669 -245.272887 
L 375.284589 -244.654143 
L 375.245276 -244.027916 
L 375.20352 -243.394025 
L 375.161506 -242.752278 
L 375.121635 -242.102479 
L 375.086315 -241.444423 
L 375.057752 -240.777898 
L 375.037746 -240.102683 
L 375.027534 -239.418547 
L 375.027663 -238.725253 
L 375.037935 -238.022552 
L 375.057409 -237.310185 
L 375.084462 -236.587882 
L 375.116918 -235.855362 
L 375.152222 -235.112332 
L 375.187663 -234.358486 
L 375.220607 -233.593505 
L 375.248751 -232.817054 
L 375.270352 -232.028785 
L 375.284439 -231.228332 
L 375.290965 -230.415312 
L 375.290907 -229.589325 
L 375.286296 -228.74995 
L 375.280177 -227.896747 
L 375.276492 -227.029251 
L 375.279906 -226.146976 
L 375.295575 -225.249409 
L 375.328869 -224.336012 
L 375.38507 -223.406215 
L 375.469062 -222.459419 
L 375.585027 -221.494991 
L 375.736165 -220.512262 
L 375.924468 -219.510523 
L 376.150556 -218.489024 
L 376.413592 -217.446971 
L 376.711294 -216.383519 
L 377.040039 -215.297771 
L 377.39506 -214.188772 
L 377.770711 -213.055504 
L 378.160785 -211.896881 
L 378.55885 -210.711742 
L 378.958553 -209.498846 
L 379.353889 -208.256861 
L 379.739379 -206.984358 
L 380.110173 -205.679798 
L 380.462068 -204.341525 
L 380.791471 -202.967749 
L 381.095336 -201.556537 
L 381.371135 -200.10579 
L 381.616889 -198.613228 
L 381.831313 -197.076371 
L 382.014099 -195.492508 
L 382.166335 -193.858672 
L 382.291062 -192.171608 
L 382.393913 -190.42773 
L 382.483809 -188.623077 
L 382.573611 -186.753261 
L 382.680677 -184.813398 
L 382.82722 -182.798035 
L 383.040382 -180.701056 
L 383.351942 -178.515572 
L 383.797557 -176.233781 
L 384.415486 -173.846801 
L 385.244736 -171.344465 
L 386.322627 -168.715053 
L 387.681839 -165.944965 
L 389.347029 -163.018294 
L 391.331258 -159.916272 
L 393.632476 -156.616539 
L 396.230453 -153.092166 
L 399.084535 -149.310319 
L 402.132637 -145.230392 
L 405.291831 -140.801345 
L 408.460741 -135.957791 
L 411.523843 -130.614055 
L 414.357505 -124.654812 
L 416.837404 -117.919582 
L 418.846756 -110.17559 
L 420.284619 -101.066513 
L 421.073464 -90.005875 
L 421.165232 -75.922893 
L 420.545226 -56.51816 
z
" style="stroke: #3c5f5b; stroke-opacity: 0.75"/>
    </defs>
    <g clip-path="url(#pac04f081b0)">
     <use xlink:href="#m0cd474ff59" x="0" y="338.32852" style="fill: #72b7b2; fill-opacity: 0.75; stroke: #3c5f5b; stroke-opacity: 0.75"/>
    </g>
   </g>
   <g id="PolyCollection_4">
    <defs>
     <path id="m14a54ad822" d="M 549.914277 -56.51816 
L 458.500254 -56.51816 
L 457.794425 -66.910552 
L 457.496122 -75.561997 
L 457.606158 -82.972945 
L 458.113542 -89.454931 
L 458.996126 -95.215116 
L 460.221778 -100.398267 
L 461.749997 -105.10954 
L 463.533853 -109.427731 
L 465.522143 -113.413412 
L 467.661615 -117.11415 
L 469.899139 -120.567982 
L 472.18371 -123.805804 
L 474.468175 -126.853053 
L 476.710631 -129.730921 
L 478.87543 -132.45725 
L 480.933796 -135.047204 
L 482.864049 -137.513779 
L 484.651482 -139.868198 
L 486.287934 -142.120217 
L 487.771127 -144.278375 
L 489.103837 -146.350183 
L 490.292952 -148.342286 
L 491.348505 -150.26059 
L 492.282713 -152.110368 
L 493.109089 -153.896348 
L 493.841638 -155.622785 
L 494.494188 -157.29352 
L 495.079839 -158.912035 
L 495.610554 -160.481498 
L 496.096879 -162.004792 
L 496.54778 -163.484559 
L 496.970587 -164.923215 
L 497.371023 -166.322983 
L 497.753307 -167.685912 
L 498.120302 -169.013889 
L 498.473706 -170.308664 
L 498.81425 -171.571856 
L 499.141908 -172.804969 
L 499.456097 -174.009402 
L 499.75586 -175.186459 
L 500.040025 -176.337357 
L 500.307338 -177.463234 
L 500.556564 -178.565154 
L 500.786563 -179.644116 
L 500.996336 -180.701056 
L 501.185049 -181.736857 
L 501.352047 -182.752346 
L 501.496847 -183.748305 
L 501.619131 -184.725472 
L 501.71874 -185.684542 
L 501.795668 -186.626173 
L 501.850065 -187.550988 
L 501.882251 -188.459578 
L 501.892736 -189.352502 
L 501.882245 -190.230291 
L 501.851752 -191.093449 
L 501.802511 -191.942456 
L 501.736081 -192.777769 
L 501.654348 -193.599823 
L 501.559527 -194.409031 
L 501.454152 -195.20579 
L 501.341043 -195.990476 
L 501.223256 -196.76345 
L 501.104013 -197.525056 
L 500.986615 -198.275624 
L 500.874339 -199.01547 
L 500.77033 -199.744894 
L 500.677494 -200.464188 
L 500.598386 -201.173627 
L 500.535123 -201.87348 
L 500.489301 -202.564 
L 500.461948 -203.245435 
L 500.453494 -203.91802 
L 500.463773 -204.581981 
L 500.492054 -205.237538 
L 500.537102 -205.8849 
L 500.597251 -206.52427 
L 500.670511 -207.155842 
L 500.754672 -207.779805 
L 500.84742 -208.39634 
L 500.946451 -209.005621 
L 501.049578 -209.607817 
L 501.154815 -210.203091 
L 501.260456 -210.791601 
L 501.365122 -211.373498 
L 501.467791 -211.948929 
L 501.567803 -212.518037 
L 501.66485 -213.080959 
L 501.758938 -213.637827 
L 501.85034 -214.188772 
L 501.93954 -214.733917 
L 502.027168 -215.273383 
L 502.11393 -215.807288 
L 502.200543 -216.335744 
L 502.287675 -216.858863 
L 502.375894 -217.37675 
L 502.465623 -217.889509 
L 502.557111 -218.397242 
L 502.650416 -218.900045 
L 505.764114 -218.900045 
L 505.764114 -218.900045 
L 505.85742 -218.397242 
L 505.948908 -217.889509 
L 506.038637 -217.37675 
L 506.126856 -216.858863 
L 506.213988 -216.335744 
L 506.300601 -215.807288 
L 506.387362 -215.273383 
L 506.474991 -214.733917 
L 506.564191 -214.188772 
L 506.655593 -213.637827 
L 506.74968 -213.080959 
L 506.846727 -212.518037 
L 506.94674 -211.948929 
L 507.049409 -211.373498 
L 507.154074 -210.791601 
L 507.259715 -210.203091 
L 507.364953 -209.607817 
L 507.46808 -209.005621 
L 507.567111 -208.39634 
L 507.659859 -207.779805 
L 507.744019 -207.155842 
L 507.817279 -206.52427 
L 507.877429 -205.8849 
L 507.922477 -205.237538 
L 507.950758 -204.581981 
L 507.961037 -203.91802 
L 507.952583 -203.245435 
L 507.92523 -202.564 
L 507.879408 -201.87348 
L 507.816144 -201.173627 
L 507.737037 -200.464188 
L 507.6442 -199.744894 
L 507.540192 -199.01547 
L 507.427916 -198.275624 
L 507.310518 -197.525056 
L 507.191275 -196.76345 
L 507.073488 -195.990476 
L 506.960379 -195.20579 
L 506.855003 -194.409031 
L 506.760183 -193.599823 
L 506.67845 -192.777769 
L 506.61202 -191.942456 
L 506.562779 -191.093449 
L 506.532286 -190.230291 
L 506.521795 -189.352502 
L 506.53228 -188.459578 
L 506.564466 -187.550988 
L 506.618863 -186.626173 
L 506.695791 -185.684542 
L 506.795399 -184.725472 
L 506.917684 -183.748305 
L 507.062484 -182.752346 
L 507.229482 -181.736857 
L 507.418195 -180.701056 
L 507.627968 -179.644116 
L 507.857966 -178.565154 
L 508.107193 -177.463234 
L 508.374506 -176.337357 
L 508.658671 -175.186459 
L 508.958434 -174.009402 
L 509.272623 -172.804969 
L 509.600281 -171.571856 
L 509.940824 -170.308664 
L 510.294229 -169.013889 
L 510.661224 -167.685912 
L 511.043508 -166.322983 
L 511.443944 -164.923215 
L 511.86675 -163.484559 
L 512.317652 -162.004792 
L 512.803977 -160.481498 
L 513.334692 -158.912035 
L 513.920343 -157.29352 
L 514.572893 -155.622785 
L 515.305442 -153.896348 
L 516.131817 -152.110368 
L 517.066026 -150.26059 
L 518.121579 -148.342286 
L 519.310694 -146.350183 
L 520.643404 -144.278375 
L 522.126597 -142.120217 
L 523.763049 -139.868198 
L 525.550481 -137.513779 
L 527.480735 -135.047204 
L 529.539101 -132.45725 
L 531.7039 -129.730921 
L 533.946356 -126.853053 
L 536.230821 -123.805804 
L 538.515391 -120.567982 
L 540.752916 -117.11415 
L 542.892388 -113.413412 
L 544.880678 -109.427731 
L 546.664534 -105.10954 
L 548.192753 -100.398267 
L 549.418405 -95.215116 
L 550.300989 -89.454931 
L 550.808373 -82.972945 
L 550.918409 -75.561997 
L 550.620106 -66.910552 
L 549.914277 -56.51816 
z
" style="stroke: #3c5f5b; stroke-opacity: 0.75"/>
    </defs>
    <g clip-path="url(#pac04f081b0)">
     <use xlink:href="#m14a54ad822" x="0" y="338.32852" style="fill: #72b7b2; fill-opacity: 0.75; stroke: #3c5f5b; stroke-opacity: 0.75"/>
    </g>
   </g>
   <g id="PathCollection_1">
    <defs>
     <path id="m5e608f3df7" d="M 0 1.581139 
C 0.419323 1.581139 0.821528 1.41454 1.118034 1.118034 
C 1.41454 0.821528 1.581139 0.419323 1.581139 0 
C 1.581139 -0.419323 1.41454 -0.821528 1.118034 -1.118034 
C 0.821528 -1.41454 0.419323 -1.581139 0 -1.581139 
C -0.419323 -1.581139 -0.821528 -1.41454 -1.118034 -1.118034 
C -1.41454 -0.821528 -1.581139 -0.419323 -1.581139 0 
C -1.581139 0.419323 -1.41454 0.821528 -1.118034 1.118034 
C -0.821528 1.41454 -0.419323 1.581139 0 1.581139 
z
"/>
    </defs>
    <g clip-path="url(#pac04f081b0)">
     <use xlink:href="#m5e608f3df7" x="120.635201" y="281.810361" style="fill: #1f1f1f; fill-opacity: 0.35"/>
     <use xlink:href="#m5e608f3df7" x="113.67882" y="281.810361" style="fill: #1f1f1f; fill-opacity: 0.35"/>
     <use xlink:href="#m5e608f3df7" x="122.39241" y="281.810361" style="fill: #1f1f1f; fill-opacity: 0.35"/>
     <use xlink:href="#m5e608f3df7" x="119.045195" y="245.913453" style="fill: #1f1f1f; fill-opacity: 0.35"/>
     <use xlink:href="#m5e608f3df7" x="106.52265" y="224.915108" style="fill: #1f1f1f; fill-opacity: 0.35"/>
     <use xlink:href="#m5e608f3df7" x="124.821896" y="281.810361" style="fill: #1f1f1f; fill-opacity: 0.35"/>
     <use xlink:href="#m5e608f3df7" x="120.369128" y="281.810361" style="fill: #1f1f1f; fill-opacity: 0.35"/>
     <use xlink:href="#m5e608f3df7" x="120.886575" y="281.810361" style="fill: #1f1f1f; fill-opacity: 0.35"/>
     <use xlink:href="#m5e608f3df7" x="107.227185" y="245.913453" style="fill: #1f1f1f; fill-opacity: 0.35"/>
     <use xlink:href="#m5e608f3df7" x="113.917721" y="210.016546" style="fill: #1f1f1f; fill-opacity: 0.35"/>
     <use xlink:href="#m5e608f3df7" x="112.265436" y="281.810361" style="fill: #1f1f1f; fill-opacity: 0.35"/>
     <use xlink:href="#m5e608f3df7" x="123.807593" y="281.810361" style="fill: #1f1f1f; fill-opacity: 0.35"/>
     <use xlink:href="#m5e608f3df7" x="117.934448" y="224.915108" style="fill: #1f1f1f; fill-opacity: 0.35"/>
     <use xlink:href="#m5e608f3df7" x="121.64843" y="281.810361" style="fill: #1f1f1f; fill-opacity: 0.35"/>
     <use xlink:href="#m5e608f3df7" x="113.772985" y="210.016546" style="fill: #1f1f1f; fill-opacity: 0.35"/>
     <use xlink:href="#m5e608f3df7" x="109.285072" y="245.913453" style="fill: #1f1f1f; fill-opacity: 0.35"/>
     <use xlink:href="#m5e608f3df7" x="116.080943" y="245.913453" style="fill: #1f1f1f; fill-opacity: 0.35"/>
     <use xlink:href="#m5e608f3df7" x="105.892359" y="210.016546" style="fill: #1f1f1f; fill-opacity: 0.35"/>
     <use xlink:href="#m5e608f3df7" x="121.749524" y="198.460323" style="fill: #1f1f1f; fill-opacity: 0.35"/>
     <use xlink:href="#m5e608f3df7" x="117.681154" y="198.460323" style="fill: #1f1f1f; fill-opacity: 0.35"/>
     <use xlink:href="#m5e608f3df7" x="120.305767" y="198.460323" style="fill: #1f1f1f; fill-opacity: 0.35"/>
     <use xlink:href="#m5e608f3df7" x="111.92762" y="88.242841" style="fill: #1f1f1f; fill-opacity: 0.35"/>
     <use xlink:href="#m5e608f3df7" x="124.719665" y="111.124604" style="fill: #1f1f1f; fill-opacity: 0.35"/>
     <use xlink:href="#m5e608f3df7" x="123.109129" y="189.018201" style="fill: #1f1f1f; fill-opacity: 0.35"/>
     <use xlink:href="#m5e608f3df7" x="120.727118" y="189.018201" style="fill: #1f1f1f; fill-opacity: 0.35"/>
     <use xlink:href="#m5e608f3df7" x="108.608279" y="174.119638" style="fill: #1f1f1f; fill-opacity: 0.35"/>
     <use xlink:href="#m5e608f3df7" x="114.256846" y="74.277426" style="fill: #1f1f1f; fill-opacity: 0.35"/>
     <use xlink:href="#m5e608f3df7" x="105.476869" y="157.627464" style="fill: #1f1f1f; fill-opacity: 0.35"/>
     <use xlink:href="#m5e608f3df7" x="107.770609" y="135.083085" style="fill: #1f1f1f; fill-opacity: 0.35"/>
     <use xlink:href="#m5e608f3df7" x="118.747924" y="224.915108" style="fill: #1f1f1f; fill-opacity: 0.35"/>
     <use xlink:href="#m5e608f3df7" x="120.029121" y="198.460323" style="fill: #1f1f1f; fill-opacity: 0.35"/>
     <use xlink:href="#m5e608f3df7" x="124.653474" y="129.3229" style="fill: #1f1f1f; fill-opacity: 0.35"/>
     <use xlink:href="#m5e608f3df7" x="111.331781" y="92.080766" style="fill: #1f1f1f; fill-opacity: 0.35"/>
     <use xlink:href="#m5e608f3df7" x="112.258412" y="281.810361" style="fill: #1f1f1f; fill-opacity: 0.35"/>
     <use xlink:href="#m5e608f3df7" x="114.315698" y="281.810361" style="fill: #1f1f1f; fill-opacity: 0.35"/>
     <use xlink:href="#m5e608f3df7" x="108.501002" y="245.913453" style="fill: #1f1f1f; fill-opacity: 0.35"/>
     <use xlink:href="#m5e608f3df7" x="107.264717" y="224.915108" style="fill: #1f1f1f; fill-opacity: 0.35"/>
     <use xlink:href="#m5e608f3df7" x="114.443357" y="245.913453" style="fill: #1f1f1f; fill-opacity: 0.35"/>
     <use xlink:href="#m5e608f3df7" x="109.278234" y="281.810361" style="fill: #1f1f1f; fill-opacity: 0.35"/>
     <use xlink:href="#m5e608f3df7" x="118.473159" y="281.810361" style="fill: #1f1f1f; fill-opacity: 0.35"/>
     <use xlink:href="#m5e608f3df7" x="113.642976" y="87.024237" style="fill: #1f1f1f; fill-opacity: 0.35"/>
     <use xlink:href="#m5e608f3df7" x="121.854303" y="245.913453" style="fill: #1f1f1f; fill-opacity: 0.35"/>
     <use xlink:href="#m5e608f3df7" x="119.10534" y="245.913453" style="fill: #1f1f1f; fill-opacity: 0.35"/>
     <use xlink:href="#m5e608f3df7" x="111.052371" y="281.810361" style="fill: #1f1f1f; fill-opacity: 0.35"/>
     <use xlink:href="#m5e608f3df7" x="121.845617" y="41.285296" style="fill: #1f1f1f; fill-opacity: 0.35"/>
     <use xlink:href="#m5e608f3df7" x="121.274798" y="97.684963" style="fill: #1f1f1f; fill-opacity: 0.35"/>
     <use xlink:href="#m5e608f3df7" x="112.611729" y="181.035001" style="fill: #1f1f1f; fill-opacity: 0.35"/>
     <use xlink:href="#m5e608f3df7" x="110.553318" y="129.3229" style="fill: #1f1f1f; fill-opacity: 0.35"/>
     <use xlink:href="#m5e608f3df7" x="118.736434" y="88.242841" style="fill: #1f1f1f; fill-opacity: 0.35"/>
     <use xlink:href="#m5e608f3df7" x="107.468813" y="281.810361" style="fill: #1f1f1f; fill-opacity: 0.35"/>
     <use xlink:href="#m5e608f3df7" x="108.717676" y="109.241186" style="fill: #1f1f1f; fill-opacity: 0.35"/>
     <use xlink:href="#m5e608f3df7" x="104.720325" y="281.810361" style="fill: #1f1f1f; fill-opacity: 0.35"/>
     <use xlink:href="#m5e608f3df7" x="120.904431" y="56.852104" style="fill: #1f1f1f; fill-opacity: 0.35"/>
     <use xlink:href="#m5e608f3df7" x="118.370122" y="53.593905" style="fill: #1f1f1f; fill-opacity: 0.35"/>
     <use xlink:href="#m5e608f3df7" x="119.207072" y="129.3229" style="fill: #1f1f1f; fill-opacity: 0.35"/>
     <use xlink:href="#m5e608f3df7" x="120.775812" y="210.016546" style="fill: #1f1f1f; fill-opacity: 0.35"/>
     <use xlink:href="#m5e608f3df7" x="114.094805" y="174.119638" style="fill: #1f1f1f; fill-opacity: 0.35"/>
     <use xlink:href="#m5e608f3df7" x="116.374837" y="245.913453" style="fill: #1f1f1f; fill-opacity: 0.35"/>
     <use xlink:href="#m5e608f3df7" x="107.469737" y="210.016546" style="fill: #1f1f1f; fill-opacity: 0.35"/>
     <use xlink:href="#m5e608f3df7" x="106.945183" y="189.018201" style="fill: #1f1f1f; fill-opacity: 0.35"/>
     <use xlink:href="#m5e608f3df7" x="118.443866" y="281.810361" style="fill: #1f1f1f; fill-opacity: 0.35"/>
     <use xlink:href="#m5e608f3df7" x="114.347677" y="281.810361" style="fill: #1f1f1f; fill-opacity: 0.35"/>
     <use xlink:href="#m5e608f3df7" x="116.302069" y="210.016546" style="fill: #1f1f1f; fill-opacity: 0.35"/>
     <use xlink:href="#m5e608f3df7" x="120.449246" y="224.915108" style="fill: #1f1f1f; fill-opacity: 0.35"/>
     <use xlink:href="#m5e608f3df7" x="117.744555" y="141.56507" style="fill: #1f1f1f; fill-opacity: 0.35"/>
     <use xlink:href="#m5e608f3df7" x="116.06007" y="64.835304" style="fill: #1f1f1f; fill-opacity: 0.35"/>
     <use xlink:href="#m5e608f3df7" x="116.176905" y="42.290926" style="fill: #1f1f1f; fill-opacity: 0.35"/>
     <use xlink:href="#m5e608f3df7" x="110.877639" y="162.563415" style="fill: #1f1f1f; fill-opacity: 0.35"/>
     <use xlink:href="#m5e608f3df7" x="105.207274" y="224.915108" style="fill: #1f1f1f; fill-opacity: 0.35"/>
     <use xlink:href="#m5e608f3df7" x="113.633955" y="281.810361" style="fill: #1f1f1f; fill-opacity: 0.35"/>
     <use xlink:href="#m5e608f3df7" x="109.022367" y="281.810361" style="fill: #1f1f1f; fill-opacity: 0.35"/>
     <use xlink:href="#m5e608f3df7" x="113.048743" y="198.460323" style="fill: #1f1f1f; fill-opacity: 0.35"/>
     <use xlink:href="#m5e608f3df7" x="122.284562" y="81.327479" style="fill: #1f1f1f; fill-opacity: 0.35"/>
     <use xlink:href="#m5e608f3df7" x="109.424183" y="198.460323" style="fill: #1f1f1f; fill-opacity: 0.35"/>
     <use xlink:href="#m5e608f3df7" x="105.777875" y="145.138093" style="fill: #1f1f1f; fill-opacity: 0.35"/>
     <use xlink:href="#m5e608f3df7" x="110.409153" y="90.7696" style="fill: #1f1f1f; fill-opacity: 0.35"/>
     <use xlink:href="#m5e608f3df7" x="110.662636" y="224.915108" style="fill: #1f1f1f; fill-opacity: 0.35"/>
     <use xlink:href="#m5e608f3df7" x="118.309204" y="181.035001" style="fill: #1f1f1f; fill-opacity: 0.35"/>
    </g>
   </g>
   <g id="PathCollection_2">
    <g clip-path="url(#pac04f081b0)">
     <use xlink:href="#m5e608f3df7" x="245.884928" y="281.810361" style="fill: #1f1f1f; fill-opacity: 0.35"/>
     <use xlink:href="#m5e608f3df7" x="250.594783" y="281.810361" style="fill: #1f1f1f; fill-opacity: 0.35"/>
     <use xlink:href="#m5e608f3df7" x="248.112144" y="281.810361" style="fill: #1f1f1f; fill-opacity: 0.35"/>
     <use xlink:href="#m5e608f3df7" x="242.757455" y="281.810361" style="fill: #1f1f1f; fill-opacity: 0.35"/>
     <use xlink:href="#m5e608f3df7" x="251.220134" y="281.810361" style="fill: #1f1f1f; fill-opacity: 0.35"/>
     <use xlink:href="#m5e608f3df7" x="237.7871" y="281.810361" style="fill: #1f1f1f; fill-opacity: 0.35"/>
     <use xlink:href="#m5e608f3df7" x="234.792172" y="281.810361" style="fill: #1f1f1f; fill-opacity: 0.35"/>
     <use xlink:href="#m5e608f3df7" x="236.190097" y="281.810361" style="fill: #1f1f1f; fill-opacity: 0.35"/>
     <use xlink:href="#m5e608f3df7" x="249.317205" y="281.810361" style="fill: #1f1f1f; fill-opacity: 0.35"/>
     <use xlink:href="#m5e608f3df7" x="243.909463" y="281.810361" style="fill: #1f1f1f; fill-opacity: 0.35"/>
     <use xlink:href="#m5e608f3df7" x="237.668741" y="281.810361" style="fill: #1f1f1f; fill-opacity: 0.35"/>
     <use xlink:href="#m5e608f3df7" x="244.722602" y="281.810361" style="fill: #1f1f1f; fill-opacity: 0.35"/>
     <use xlink:href="#m5e608f3df7" x="237.482734" y="281.810361" style="fill: #1f1f1f; fill-opacity: 0.35"/>
     <use xlink:href="#m5e608f3df7" x="248.776622" y="281.810361" style="fill: #1f1f1f; fill-opacity: 0.35"/>
     <use xlink:href="#m5e608f3df7" x="243.583088" y="224.915108" style="fill: #1f1f1f; fill-opacity: 0.35"/>
     <use xlink:href="#m5e608f3df7" x="242.230852" y="281.810361" style="fill: #1f1f1f; fill-opacity: 0.35"/>
     <use xlink:href="#m5e608f3df7" x="240.580202" y="224.915108" style="fill: #1f1f1f; fill-opacity: 0.35"/>
     <use xlink:href="#m5e608f3df7" x="247.405644" y="281.810361" style="fill: #1f1f1f; fill-opacity: 0.35"/>
     <use xlink:href="#m5e608f3df7" x="241.832071" y="281.810361" style="fill: #1f1f1f; fill-opacity: 0.35"/>
     <use xlink:href="#m5e608f3df7" x="236.140314" y="281.810361" style="fill: #1f1f1f; fill-opacity: 0.35"/>
     <use xlink:href="#m5e608f3df7" x="236.77052" y="281.810361" style="fill: #1f1f1f; fill-opacity: 0.35"/>
     <use xlink:href="#m5e608f3df7" x="254.290142" y="281.810361" style="fill: #1f1f1f; fill-opacity: 0.35"/>
     <use xlink:href="#m5e608f3df7" x="253.183254" y="281.810361" style="fill: #1f1f1f; fill-opacity: 0.35"/>
     <use xlink:href="#m5e608f3df7" x="248.846933" y="281.810361" style="fill: #1f1f1f; fill-opacity: 0.35"/>
     <use xlink:href="#m5e608f3df7" x="239.840253" y="281.810361" style="fill: #1f1f1f; fill-opacity: 0.35"/>
     <use xlink:href="#m5e608f3df7" x="254.441252" y="281.810361" style="fill: #1f1f1f; fill-opacity: 0.35"/>
     <use xlink:href="#m5e608f3df7" x="250.487922" y="281.810361" style="fill: #1f1f1f; fill-opacity: 0.35"/>
     <use xlink:href="#m5e608f3df7" x="249.203662" y="281.810361" style="fill: #1f1f1f; fill-opacity: 0.35"/>
     <use xlink:href="#m5e608f3df7" x="243.649631" y="281.810361" style="fill: #1f1f1f; fill-opacity: 0.35"/>
     <use xlink:href="#m5e608f3df7" x="239.972531" y="281.810361" style="fill: #1f1f1f; fill-opacity: 0.35"/>
     <use xlink:href="#m5e608f3df7" x="236.321783" y="245.913453" style="fill: #1f1f1f; fill-opacity: 0.35"/>
     <use xlink:href="#m5e608f3df7" x="253.059142" y="281.810361" style="fill: #1f1f1f; fill-opacity: 0.35"/>
     <use xlink:href="#m5e608f3df7" x="243.782805" y="281.810361" style="fill: #1f1f1f; fill-opacity: 0.35"/>
     <use xlink:href="#m5e608f3df7" x="238.521824" y="281.810361" style="fill: #1f1f1f; fill-opacity: 0.35"/>
     <use xlink:href="#m5e608f3df7" x="240.672472" y="281.810361" style="fill: #1f1f1f; fill-opacity: 0.35"/>
     <use xlink:href="#m5e608f3df7" x="246.34555" y="224.915108" style="fill: #1f1f1f; fill-opacity: 0.35"/>
     <use xlink:href="#m5e608f3df7" x="237.99055" y="281.810361" style="fill: #1f1f1f; fill-opacity: 0.35"/>
     <use xlink:href="#m5e608f3df7" x="252.104405" y="281.810361" style="fill: #1f1f1f; fill-opacity: 0.35"/>
     <use xlink:href="#m5e608f3df7" x="250.067908" y="281.810361" style="fill: #1f1f1f; fill-opacity: 0.35"/>
     <use xlink:href="#m5e608f3df7" x="249.257074" y="281.810361" style="fill: #1f1f1f; fill-opacity: 0.35"/>
     <use xlink:href="#m5e608f3df7" x="243.291129" y="281.810361" style="fill: #1f1f1f; fill-opacity: 0.35"/>
     <use xlink:href="#m5e608f3df7" x="247.343908" y="281.810361" style="fill: #1f1f1f; fill-opacity: 0.35"/>
     <use xlink:href="#m5e608f3df7" x="246.446828" y="281.810361" style="fill: #1f1f1f; fill-opacity: 0.35"/>
     <use xlink:href="#m5e608f3df7" x="247.811803" y="281.810361" style="fill: #1f1f1f; fill-opacity: 0.35"/>
     <use xlink:href="#m5e608f3df7" x="236.073764" y="281.810361" style="fill: #1f1f1f; fill-opacity: 0.35"/>
     <use xlink:href="#m5e608f3df7" x="242.95303" y="281.810361" style="fill: #1f1f1f; fill-opacity: 0.35"/>
     <use xlink:href="#m5e608f3df7" x="235.184589" y="141.56507" style="fill: #1f1f1f; fill-opacity: 0.35"/>
     <use xlink:href="#m5e608f3df7" x="244.576158" y="38.380518" style="fill: #1f1f1f; fill-opacity: 0.35"/>
     <use xlink:href="#m5e608f3df7" x="241.168744" y="138.222731" style="fill: #1f1f1f; fill-opacity: 0.35"/>
     <use xlink:href="#m5e608f3df7" x="237.321053" y="281.810361" style="fill: #1f1f1f; fill-opacity: 0.35"/>
     <use xlink:href="#m5e608f3df7" x="236.467356" y="245.913453" style="fill: #1f1f1f; fill-opacity: 0.35"/>
     <use xlink:href="#m5e608f3df7" x="246.520457" y="224.915108" style="fill: #1f1f1f; fill-opacity: 0.35"/>
     <use xlink:href="#m5e608f3df7" x="237.862254" y="49.351557" style="fill: #1f1f1f; fill-opacity: 0.35"/>
     <use xlink:href="#m5e608f3df7" x="253.526621" y="57.529085" style="fill: #1f1f1f; fill-opacity: 0.35"/>
     <use xlink:href="#m5e608f3df7" x="246.383782" y="281.810361" style="fill: #1f1f1f; fill-opacity: 0.35"/>
     <use xlink:href="#m5e608f3df7" x="241.521851" y="281.810361" style="fill: #1f1f1f; fill-opacity: 0.35"/>
     <use xlink:href="#m5e608f3df7" x="246.588363" y="281.810361" style="fill: #1f1f1f; fill-opacity: 0.35"/>
     <use xlink:href="#m5e608f3df7" x="234.794077" y="189.018201" style="fill: #1f1f1f; fill-opacity: 0.35"/>
     <use xlink:href="#m5e608f3df7" x="254.220834" y="245.913453" style="fill: #1f1f1f; fill-opacity: 0.35"/>
     <use xlink:href="#m5e608f3df7" x="244.333522" y="245.913453" style="fill: #1f1f1f; fill-opacity: 0.35"/>
     <use xlink:href="#m5e608f3df7" x="250.570639" y="245.913453" style="fill: #1f1f1f; fill-opacity: 0.35"/>
     <use xlink:href="#m5e608f3df7" x="236.038174" y="198.460323" style="fill: #1f1f1f; fill-opacity: 0.35"/>
     <use xlink:href="#m5e608f3df7" x="244.423932" y="198.460323" style="fill: #1f1f1f; fill-opacity: 0.35"/>
     <use xlink:href="#m5e608f3df7" x="244.507984" y="245.913453" style="fill: #1f1f1f; fill-opacity: 0.35"/>
     <use xlink:href="#m5e608f3df7" x="253.790411" y="181.035001" style="fill: #1f1f1f; fill-opacity: 0.35"/>
     <use xlink:href="#m5e608f3df7" x="246.190022" y="109.241186" style="fill: #1f1f1f; fill-opacity: 0.35"/>
     <use xlink:href="#m5e608f3df7" x="244.150538" y="64.835304" style="fill: #1f1f1f; fill-opacity: 0.35"/>
     <use xlink:href="#m5e608f3df7" x="239.863208" y="210.016546" style="fill: #1f1f1f; fill-opacity: 0.35"/>
     <use xlink:href="#m5e608f3df7" x="241.204198" y="245.913453" style="fill: #1f1f1f; fill-opacity: 0.35"/>
     <use xlink:href="#m5e608f3df7" x="245.130081" y="281.810361" style="fill: #1f1f1f; fill-opacity: 0.35"/>
     <use xlink:href="#m5e608f3df7" x="243.432682" y="281.810361" style="fill: #1f1f1f; fill-opacity: 0.35"/>
     <use xlink:href="#m5e608f3df7" x="234.769335" y="198.460323" style="fill: #1f1f1f; fill-opacity: 0.35"/>
     <use xlink:href="#m5e608f3df7" x="251.474898" y="37.911843" style="fill: #1f1f1f; fill-opacity: 0.35"/>
     <use xlink:href="#m5e608f3df7" x="252.925411" y="141.56507" style="fill: #1f1f1f; fill-opacity: 0.35"/>
     <use xlink:href="#m5e608f3df7" x="237.2323" y="245.913453" style="fill: #1f1f1f; fill-opacity: 0.35"/>
     <use xlink:href="#m5e608f3df7" x="245.822729" y="85.833649" style="fill: #1f1f1f; fill-opacity: 0.35"/>
     <use xlink:href="#m5e608f3df7" x="236.574745" y="189.018201" style="fill: #1f1f1f; fill-opacity: 0.35"/>
     <use xlink:href="#m5e608f3df7" x="248.276703" y="224.915108" style="fill: #1f1f1f; fill-opacity: 0.35"/>
    </g>
   </g>
   <g id="PathCollection_3">
    <g clip-path="url(#pac04f081b0)">
     <use xlink:href="#m5e608f3df7" x="369.912391" y="281.810361" style="fill: #1f1f1f; fill-opacity: 0.35"/>
     <use xlink:href="#m5e608f3df7" x="377.763783" y="281.810361" style="fill: #1f1f1f; fill-opacity: 0.35"/>
     <use xlink:href="#m5e608f3df7" x="379.166612" y="281.810361" style="fill: #1f1f1f; fill-opacity: 0.35"/>
     <use xlink:href="#m5e608f3df7" x="380.031347" y="281.810361" style="fill: #1f1f1f; fill-opacity: 0.35"/>
     <use xlink:href="#m5e608f3df7" x="366.310591" y="281.810361" style="fill: #1f1f1f; fill-opacity: 0.35"/>
     <use xlink:href="#m5e608f3df7" x="383.090706" y="281.810361" style="fill: #1f1f1f; fill-opacity: 0.35"/>
     <use xlink:href="#m5e608f3df7" x="368.853194" y="281.810361" style="fill: #1f1f1f; fill-opacity: 0.35"/>
     <use xlink:href="#m5e608f3df7" x="364.850538" y="281.810361" style="fill: #1f1f1f; fill-opacity: 0.35"/>
     <use xlink:href="#m5e608f3df7" x="375.592854" y="281.810361" style="fill: #1f1f1f; fill-opacity: 0.35"/>
     <use xlink:href="#m5e608f3df7" x="371.774369" y="281.810361" style="fill: #1f1f1f; fill-opacity: 0.35"/>
     <use xlink:href="#m5e608f3df7" x="381.300691" y="281.810361" style="fill: #1f1f1f; fill-opacity: 0.35"/>
     <use xlink:href="#m5e608f3df7" x="380.853546" y="281.810361" style="fill: #1f1f1f; fill-opacity: 0.35"/>
     <use xlink:href="#m5e608f3df7" x="370.657799" y="245.913453" style="fill: #1f1f1f; fill-opacity: 0.35"/>
     <use xlink:href="#m5e608f3df7" x="383.85651" y="281.810361" style="fill: #1f1f1f; fill-opacity: 0.35"/>
     <use xlink:href="#m5e608f3df7" x="370.113437" y="245.913453" style="fill: #1f1f1f; fill-opacity: 0.35"/>
     <use xlink:href="#m5e608f3df7" x="374.766682" y="245.913453" style="fill: #1f1f1f; fill-opacity: 0.35"/>
     <use xlink:href="#m5e608f3df7" x="369.3878" y="168.019856" style="fill: #1f1f1f; fill-opacity: 0.35"/>
     <use xlink:href="#m5e608f3df7" x="383.506575" y="245.913453" style="fill: #1f1f1f; fill-opacity: 0.35"/>
     <use xlink:href="#m5e608f3df7" x="367.491176" y="281.810361" style="fill: #1f1f1f; fill-opacity: 0.35"/>
     <use xlink:href="#m5e608f3df7" x="365.006202" y="245.913453" style="fill: #1f1f1f; fill-opacity: 0.35"/>
     <use xlink:href="#m5e608f3df7" x="373.10667" y="281.810361" style="fill: #1f1f1f; fill-opacity: 0.35"/>
     <use xlink:href="#m5e608f3df7" x="384.676055" y="224.915108" style="fill: #1f1f1f; fill-opacity: 0.35"/>
     <use xlink:href="#m5e608f3df7" x="382.585508" y="281.810361" style="fill: #1f1f1f; fill-opacity: 0.35"/>
     <use xlink:href="#m5e608f3df7" x="379.615317" y="281.810361" style="fill: #1f1f1f; fill-opacity: 0.35"/>
     <use xlink:href="#m5e608f3df7" x="382.567139" y="281.810361" style="fill: #1f1f1f; fill-opacity: 0.35"/>
     <use xlink:href="#m5e608f3df7" x="382.622241" y="281.810361" style="fill: #1f1f1f; fill-opacity: 0.35"/>
     <use xlink:href="#m5e608f3df7" x="374.845598" y="281.810361" style="fill: #1f1f1f; fill-opacity: 0.35"/>
     <use xlink:href="#m5e608f3df7" x="370.632682" y="132.122949" style="fill: #1f1f1f; fill-opacity: 0.35"/>
     <use xlink:href="#m5e608f3df7" x="380.101205" y="281.810361" style="fill: #1f1f1f; fill-opacity: 0.35"/>
     <use xlink:href="#m5e608f3df7" x="377.810258" y="281.810361" style="fill: #1f1f1f; fill-opacity: 0.35"/>
     <use xlink:href="#m5e608f3df7" x="371.831159" y="245.913453" style="fill: #1f1f1f; fill-opacity: 0.35"/>
     <use xlink:href="#m5e608f3df7" x="366.03501" y="281.810361" style="fill: #1f1f1f; fill-opacity: 0.35"/>
     <use xlink:href="#m5e608f3df7" x="379.577566" y="281.810361" style="fill: #1f1f1f; fill-opacity: 0.35"/>
     <use xlink:href="#m5e608f3df7" x="369.522648" y="281.810361" style="fill: #1f1f1f; fill-opacity: 0.35"/>
     <use xlink:href="#m5e608f3df7" x="383.522552" y="281.810361" style="fill: #1f1f1f; fill-opacity: 0.35"/>
     <use xlink:href="#m5e608f3df7" x="369.076506" y="224.915108" style="fill: #1f1f1f; fill-opacity: 0.35"/>
     <use xlink:href="#m5e608f3df7" x="366.622351" y="245.913453" style="fill: #1f1f1f; fill-opacity: 0.35"/>
     <use xlink:href="#m5e608f3df7" x="381.328156" y="245.913453" style="fill: #1f1f1f; fill-opacity: 0.35"/>
     <use xlink:href="#m5e608f3df7" x="367.256095" y="281.810361" style="fill: #1f1f1f; fill-opacity: 0.35"/>
     <use xlink:href="#m5e608f3df7" x="367.795536" y="281.810361" style="fill: #1f1f1f; fill-opacity: 0.35"/>
     <use xlink:href="#m5e608f3df7" x="376.517326" y="145.138093" style="fill: #1f1f1f; fill-opacity: 0.35"/>
     <use xlink:href="#m5e608f3df7" x="382.230187" y="281.810361" style="fill: #1f1f1f; fill-opacity: 0.35"/>
     <use xlink:href="#m5e608f3df7" x="368.151918" y="281.810361" style="fill: #1f1f1f; fill-opacity: 0.35"/>
     <use xlink:href="#m5e608f3df7" x="370.516312" y="281.810361" style="fill: #1f1f1f; fill-opacity: 0.35"/>
     <use xlink:href="#m5e608f3df7" x="380.213154" y="83.531568" style="fill: #1f1f1f; fill-opacity: 0.35"/>
     <use xlink:href="#m5e608f3df7" x="384.249445" y="132.122949" style="fill: #1f1f1f; fill-opacity: 0.35"/>
     <use xlink:href="#m5e608f3df7" x="374.469476" y="245.913453" style="fill: #1f1f1f; fill-opacity: 0.35"/>
     <use xlink:href="#m5e608f3df7" x="367.06122" y="148.976019" style="fill: #1f1f1f; fill-opacity: 0.35"/>
     <use xlink:href="#m5e608f3df7" x="364.363159" y="224.915108" style="fill: #1f1f1f; fill-opacity: 0.35"/>
     <use xlink:href="#m5e608f3df7" x="368.84161" y="281.810361" style="fill: #1f1f1f; fill-opacity: 0.35"/>
     <use xlink:href="#m5e608f3df7" x="366.810531" y="281.810361" style="fill: #1f1f1f; fill-opacity: 0.35"/>
     <use xlink:href="#m5e608f3df7" x="378.142373" y="281.810361" style="fill: #1f1f1f; fill-opacity: 0.35"/>
     <use xlink:href="#m5e608f3df7" x="366.603139" y="145.138093" style="fill: #1f1f1f; fill-opacity: 0.35"/>
     <use xlink:href="#m5e608f3df7" x="374.585501" y="129.3229" style="fill: #1f1f1f; fill-opacity: 0.35"/>
     <use xlink:href="#m5e608f3df7" x="378.487075" y="245.913453" style="fill: #1f1f1f; fill-opacity: 0.35"/>
     <use xlink:href="#m5e608f3df7" x="376.138111" y="245.913453" style="fill: #1f1f1f; fill-opacity: 0.35"/>
     <use xlink:href="#m5e608f3df7" x="368.221278" y="224.915108" style="fill: #1f1f1f; fill-opacity: 0.35"/>
     <use xlink:href="#m5e608f3df7" x="380.767868" y="245.913453" style="fill: #1f1f1f; fill-opacity: 0.35"/>
     <use xlink:href="#m5e608f3df7" x="378.92605" y="245.913453" style="fill: #1f1f1f; fill-opacity: 0.35"/>
     <use xlink:href="#m5e608f3df7" x="379.415518" y="210.016546" style="fill: #1f1f1f; fill-opacity: 0.35"/>
     <use xlink:href="#m5e608f3df7" x="366.79466" y="245.913453" style="fill: #1f1f1f; fill-opacity: 0.35"/>
     <use xlink:href="#m5e608f3df7" x="366.643026" y="245.913453" style="fill: #1f1f1f; fill-opacity: 0.35"/>
     <use xlink:href="#m5e608f3df7" x="383.330504" y="181.035001" style="fill: #1f1f1f; fill-opacity: 0.35"/>
     <use xlink:href="#m5e608f3df7" x="372.32776" y="210.016546" style="fill: #1f1f1f; fill-opacity: 0.35"/>
     <use xlink:href="#m5e608f3df7" x="370.321682" y="148.976019" style="fill: #1f1f1f; fill-opacity: 0.35"/>
     <use xlink:href="#m5e608f3df7" x="374.217087" y="141.56507" style="fill: #1f1f1f; fill-opacity: 0.35"/>
     <use xlink:href="#m5e608f3df7" x="377.835232" y="92.080766" style="fill: #1f1f1f; fill-opacity: 0.35"/>
     <use xlink:href="#m5e608f3df7" x="383.913059" y="181.035001" style="fill: #1f1f1f; fill-opacity: 0.35"/>
     <use xlink:href="#m5e608f3df7" x="370.020604" y="245.913453" style="fill: #1f1f1f; fill-opacity: 0.35"/>
     <use xlink:href="#m5e608f3df7" x="383.273327" y="281.810361" style="fill: #1f1f1f; fill-opacity: 0.35"/>
     <use xlink:href="#m5e608f3df7" x="364.58993" y="281.810361" style="fill: #1f1f1f; fill-opacity: 0.35"/>
     <use xlink:href="#m5e608f3df7" x="375.600028" y="132.122949" style="fill: #1f1f1f; fill-opacity: 0.35"/>
     <use xlink:href="#m5e608f3df7" x="377.23548" y="107.423866" style="fill: #1f1f1f; fill-opacity: 0.35"/>
     <use xlink:href="#m5e608f3df7" x="366.272318" y="153.121294" style="fill: #1f1f1f; fill-opacity: 0.35"/>
     <use xlink:href="#m5e608f3df7" x="366.987356" y="245.913453" style="fill: #1f1f1f; fill-opacity: 0.35"/>
     <use xlink:href="#m5e608f3df7" x="372.774861" y="157.627464" style="fill: #1f1f1f; fill-opacity: 0.35"/>
     <use xlink:href="#m5e608f3df7" x="384.1333" y="157.627464" style="fill: #1f1f1f; fill-opacity: 0.35"/>
     <use xlink:href="#m5e608f3df7" x="376.447981" y="210.016546" style="fill: #1f1f1f; fill-opacity: 0.35"/>
    </g>
   </g>
   <g id="PathCollection_4">
    <g clip-path="url(#pac04f081b0)">
     <use xlink:href="#m5e608f3df7" x="513.197048" y="281.810361" style="fill: #1f1f1f; fill-opacity: 0.35"/>
     <use xlink:href="#m5e608f3df7" x="510.525953" y="281.810361" style="fill: #1f1f1f; fill-opacity: 0.35"/>
     <use xlink:href="#m5e608f3df7" x="503.530091" y="281.810361" style="fill: #1f1f1f; fill-opacity: 0.35"/>
     <use xlink:href="#m5e608f3df7" x="510.119099" y="281.810361" style="fill: #1f1f1f; fill-opacity: 0.35"/>
     <use xlink:href="#m5e608f3df7" x="494.197312" y="281.810361" style="fill: #1f1f1f; fill-opacity: 0.35"/>
     <use xlink:href="#m5e608f3df7" x="496.092896" y="281.810361" style="fill: #1f1f1f; fill-opacity: 0.35"/>
     <use xlink:href="#m5e608f3df7" x="511.046371" y="281.810361" style="fill: #1f1f1f; fill-opacity: 0.35"/>
     <use xlink:href="#m5e608f3df7" x="510.369339" y="281.810361" style="fill: #1f1f1f; fill-opacity: 0.35"/>
     <use xlink:href="#m5e608f3df7" x="498.656751" y="189.018201" style="fill: #1f1f1f; fill-opacity: 0.35"/>
     <use xlink:href="#m5e608f3df7" x="504.846058" y="281.810361" style="fill: #1f1f1f; fill-opacity: 0.35"/>
     <use xlink:href="#m5e608f3df7" x="506.408208" y="281.810361" style="fill: #1f1f1f; fill-opacity: 0.35"/>
     <use xlink:href="#m5e608f3df7" x="511.841713" y="281.810361" style="fill: #1f1f1f; fill-opacity: 0.35"/>
     <use xlink:href="#m5e608f3df7" x="506.347822" y="245.913453" style="fill: #1f1f1f; fill-opacity: 0.35"/>
     <use xlink:href="#m5e608f3df7" x="502.392207" y="245.913453" style="fill: #1f1f1f; fill-opacity: 0.35"/>
     <use xlink:href="#m5e608f3df7" x="501.595262" y="245.913453" style="fill: #1f1f1f; fill-opacity: 0.35"/>
     <use xlink:href="#m5e608f3df7" x="502.66854" y="245.913453" style="fill: #1f1f1f; fill-opacity: 0.35"/>
     <use xlink:href="#m5e608f3df7" x="507.361431" y="245.913453" style="fill: #1f1f1f; fill-opacity: 0.35"/>
     <use xlink:href="#m5e608f3df7" x="511.836558" y="245.913453" style="fill: #1f1f1f; fill-opacity: 0.35"/>
     <use xlink:href="#m5e608f3df7" x="503.250141" y="281.810361" style="fill: #1f1f1f; fill-opacity: 0.35"/>
     <use xlink:href="#m5e608f3df7" x="498.972287" y="281.810361" style="fill: #1f1f1f; fill-opacity: 0.35"/>
     <use xlink:href="#m5e608f3df7" x="498.740242" y="245.913453" style="fill: #1f1f1f; fill-opacity: 0.35"/>
     <use xlink:href="#m5e608f3df7" x="509.314647" y="281.810361" style="fill: #1f1f1f; fill-opacity: 0.35"/>
     <use xlink:href="#m5e608f3df7" x="510.779394" y="281.810361" style="fill: #1f1f1f; fill-opacity: 0.35"/>
     <use xlink:href="#m5e608f3df7" x="496.012638" y="281.810361" style="fill: #1f1f1f; fill-opacity: 0.35"/>
     <use xlink:href="#m5e608f3df7" x="495.208807" y="281.810361" style="fill: #1f1f1f; fill-opacity: 0.35"/>
     <use xlink:href="#m5e608f3df7" x="506.167756" y="281.810361" style="fill: #1f1f1f; fill-opacity: 0.35"/>
     <use xlink:href="#m5e608f3df7" x="496.861642" y="281.810361" style="fill: #1f1f1f; fill-opacity: 0.35"/>
     <use xlink:href="#m5e608f3df7" x="510.947459" y="198.460323" style="fill: #1f1f1f; fill-opacity: 0.35"/>
     <use xlink:href="#m5e608f3df7" x="500.269717" y="281.810361" style="fill: #1f1f1f; fill-opacity: 0.35"/>
     <use xlink:href="#m5e608f3df7" x="496.813866" y="281.810361" style="fill: #1f1f1f; fill-opacity: 0.35"/>
     <use xlink:href="#m5e608f3df7" x="512.946826" y="245.913453" style="fill: #1f1f1f; fill-opacity: 0.35"/>
     <use xlink:href="#m5e608f3df7" x="497.263534" y="281.810361" style="fill: #1f1f1f; fill-opacity: 0.35"/>
     <use xlink:href="#m5e608f3df7" x="499.737945" y="281.810361" style="fill: #1f1f1f; fill-opacity: 0.35"/>
     <use xlink:href="#m5e608f3df7" x="497.016103" y="281.810361" style="fill: #1f1f1f; fill-opacity: 0.35"/>
     <use xlink:href="#m5e608f3df7" x="496.224644" y="281.810361" style="fill: #1f1f1f; fill-opacity: 0.35"/>
     <use xlink:href="#m5e608f3df7" x="494.266055" y="224.915108" style="fill: #1f1f1f; fill-opacity: 0.35"/>
     <use xlink:href="#m5e608f3df7" x="494.977048" y="281.810361" style="fill: #1f1f1f; fill-opacity: 0.35"/>
     <use xlink:href="#m5e608f3df7" x="497.452657" y="245.913453" style="fill: #1f1f1f; fill-opacity: 0.35"/>
     <use xlink:href="#m5e608f3df7" x="494.935247" y="281.810361" style="fill: #1f1f1f; fill-opacity: 0.35"/>
     <use xlink:href="#m5e608f3df7" x="506.099457" y="281.810361" style="fill: #1f1f1f; fill-opacity: 0.35"/>
     <use xlink:href="#m5e608f3df7" x="507.958991" y="281.810361" style="fill: #1f1f1f; fill-opacity: 0.35"/>
     <use xlink:href="#m5e608f3df7" x="501.99898" y="281.810361" style="fill: #1f1f1f; fill-opacity: 0.35"/>
     <use xlink:href="#m5e608f3df7" x="500.428668" y="281.810361" style="fill: #1f1f1f; fill-opacity: 0.35"/>
     <use xlink:href="#m5e608f3df7" x="504.301232" y="281.810361" style="fill: #1f1f1f; fill-opacity: 0.35"/>
     <use xlink:href="#m5e608f3df7" x="511.992559" y="135.083085" style="fill: #1f1f1f; fill-opacity: 0.35"/>
     <use xlink:href="#m5e608f3df7" x="511.496936" y="189.018201" style="fill: #1f1f1f; fill-opacity: 0.35"/>
     <use xlink:href="#m5e608f3df7" x="494.729576" y="174.119638" style="fill: #1f1f1f; fill-opacity: 0.35"/>
     <use xlink:href="#m5e608f3df7" x="497.59501" y="124.139749" style="fill: #1f1f1f; fill-opacity: 0.35"/>
     <use xlink:href="#m5e608f3df7" x="498.741955" y="224.915108" style="fill: #1f1f1f; fill-opacity: 0.35"/>
     <use xlink:href="#m5e608f3df7" x="499.004424" y="281.810361" style="fill: #1f1f1f; fill-opacity: 0.35"/>
     <use xlink:href="#m5e608f3df7" x="505.686091" y="281.810361" style="fill: #1f1f1f; fill-opacity: 0.35"/>
     <use xlink:href="#m5e608f3df7" x="502.468831" y="281.810361" style="fill: #1f1f1f; fill-opacity: 0.35"/>
     <use xlink:href="#m5e608f3df7" x="494.849552" y="119.428476" style="fill: #1f1f1f; fill-opacity: 0.35"/>
     <use xlink:href="#m5e608f3df7" x="501.583431" y="129.3229" style="fill: #1f1f1f; fill-opacity: 0.35"/>
     <use xlink:href="#m5e608f3df7" x="504.700389" y="281.810361" style="fill: #1f1f1f; fill-opacity: 0.35"/>
     <use xlink:href="#m5e608f3df7" x="495.937772" y="224.915108" style="fill: #1f1f1f; fill-opacity: 0.35"/>
     <use xlink:href="#m5e608f3df7" x="511.130034" y="245.913453" style="fill: #1f1f1f; fill-opacity: 0.35"/>
     <use xlink:href="#m5e608f3df7" x="494.905766" y="135.083085" style="fill: #1f1f1f; fill-opacity: 0.35"/>
     <use xlink:href="#m5e608f3df7" x="513.027199" y="281.810361" style="fill: #1f1f1f; fill-opacity: 0.35"/>
     <use xlink:href="#m5e608f3df7" x="495.88465" y="189.018201" style="fill: #1f1f1f; fill-opacity: 0.35"/>
     <use xlink:href="#m5e608f3df7" x="511.340056" y="210.016546" style="fill: #1f1f1f; fill-opacity: 0.35"/>
     <use xlink:href="#m5e608f3df7" x="512.566549" y="174.119638" style="fill: #1f1f1f; fill-opacity: 0.35"/>
     <use xlink:href="#m5e608f3df7" x="514.163396" y="210.016546" style="fill: #1f1f1f; fill-opacity: 0.35"/>
     <use xlink:href="#m5e608f3df7" x="510.477476" y="281.810361" style="fill: #1f1f1f; fill-opacity: 0.35"/>
     <use xlink:href="#m5e608f3df7" x="510.009361" y="162.563415" style="fill: #1f1f1f; fill-opacity: 0.35"/>
     <use xlink:href="#m5e608f3df7" x="507.165291" y="224.915108" style="fill: #1f1f1f; fill-opacity: 0.35"/>
     <use xlink:href="#m5e608f3df7" x="509.999372" y="153.121294" style="fill: #1f1f1f; fill-opacity: 0.35"/>
     <use xlink:href="#m5e608f3df7" x="496.620383" y="141.56507" style="fill: #1f1f1f; fill-opacity: 0.35"/>
     <use xlink:href="#m5e608f3df7" x="504.956056" y="245.913453" style="fill: #1f1f1f; fill-opacity: 0.35"/>
     <use xlink:href="#m5e608f3df7" x="504.502539" y="245.913453" style="fill: #1f1f1f; fill-opacity: 0.35"/>
     <use xlink:href="#m5e608f3df7" x="511.630645" y="281.810361" style="fill: #1f1f1f; fill-opacity: 0.35"/>
     <use xlink:href="#m5e608f3df7" x="503.434961" y="245.913453" style="fill: #1f1f1f; fill-opacity: 0.35"/>
     <use xlink:href="#m5e608f3df7" x="501.821665" y="135.083085" style="fill: #1f1f1f; fill-opacity: 0.35"/>
     <use xlink:href="#m5e608f3df7" x="507.10467" y="189.018201" style="fill: #1f1f1f; fill-opacity: 0.35"/>
     <use xlink:href="#m5e608f3df7" x="499.358925" y="245.913453" style="fill: #1f1f1f; fill-opacity: 0.35"/>
     <use xlink:href="#m5e608f3df7" x="496.728674" y="174.119638" style="fill: #1f1f1f; fill-opacity: 0.35"/>
     <use xlink:href="#m5e608f3df7" x="503.747986" y="174.119638" style="fill: #1f1f1f; fill-opacity: 0.35"/>
     <use xlink:href="#m5e608f3df7" x="502.481846" y="224.915108" style="fill: #1f1f1f; fill-opacity: 0.35"/>
    </g>
   </g>
   <g id="LineCollection_1">
    <path d="M 91.592163 41.285296 
L 138.303306 41.285296 
" clip-path="url(#pac04f081b0)" style="fill: none; stroke: #1f77b4; stroke-width: 1.5"/>
    <path d="M 221.34534 37.911843 
L 268.056483 37.911843 
" clip-path="url(#pac04f081b0)" style="fill: none; stroke: #1f77b4; stroke-width: 1.5"/>
    <path d="M 351.098517 83.531568 
L 397.80966 83.531568 
" clip-path="url(#pac04f081b0)" style="fill: none; stroke: #1f77b4; stroke-width: 1.5"/>
    <path d="M 480.851694 119.428476 
L 527.562837 119.428476 
" clip-path="url(#pac04f081b0)" style="fill: none; stroke: #1f77b4; stroke-width: 1.5"/>
   </g>
   <g id="LineCollection_2">
    <path d="M 91.592163 281.810361 
L 138.303306 281.810361 
" clip-path="url(#pac04f081b0)" style="fill: none; stroke: #1f77b4; stroke-width: 1.5"/>
    <path d="M 221.34534 281.810361 
L 268.056483 281.810361 
" clip-path="url(#pac04f081b0)" style="fill: none; stroke: #1f77b4; stroke-width: 1.5"/>
    <path d="M 351.098517 281.810361 
L 397.80966 281.810361 
" clip-path="url(#pac04f081b0)" style="fill: none; stroke: #1f77b4; stroke-width: 1.5"/>
    <path d="M 480.851694 281.810361 
L 527.562837 281.810361 
" clip-path="url(#pac04f081b0)" style="fill: none; stroke: #1f77b4; stroke-width: 1.5"/>
   </g>
   <g id="LineCollection_3">
    <path d="M 114.947735 281.810361 
L 114.947735 41.285296 
" clip-path="url(#pac04f081b0)" style="fill: none; stroke: #1f77b4; stroke-width: 1.5"/>
    <path d="M 244.700912 281.810361 
L 244.700912 37.911843 
" clip-path="url(#pac04f081b0)" style="fill: none; stroke: #1f77b4; stroke-width: 1.5"/>
    <path d="M 374.454088 281.810361 
L 374.454088 83.531568 
" clip-path="url(#pac04f081b0)" style="fill: none; stroke: #1f77b4; stroke-width: 1.5"/>
    <path d="M 504.207265 281.810361 
L 504.207265 119.428476 
" clip-path="url(#pac04f081b0)" style="fill: none; stroke: #1f77b4; stroke-width: 1.5"/>
   </g>
   <g id="LineCollection_4">
    <path d="M 91.592163 210.016546 
L 138.303306 210.016546 
" clip-path="url(#pac04f081b0)" style="fill: none; stroke: #222222; stroke-width: 1.5"/>
    <path d="M 221.34534 281.810361 
L 268.056483 281.810361 
" clip-path="url(#pac04f081b0)" style="fill: none; stroke: #222222; stroke-width: 1.5"/>
    <path d="M 351.098517 245.913453 
L 397.80966 245.913453 
" clip-path="url(#pac04f081b0)" style="fill: none; stroke: #222222; stroke-width: 1.5"/>
    <path d="M 480.851694 260.812016 
L 527.562837 260.812016 
" clip-path="url(#pac04f081b0)" style="fill: none; stroke: #222222; stroke-width: 1.5"/>
   </g>
   <g id="patch_3">
    <path d="M 44.1025 294.005287 
L 44.1025 22.318125 
" style="fill: none; stroke: #000000; stroke-width: 0.8; stroke-linejoin: miter; stroke-linecap: square"/>
   </g>
   <g id="patch_4">
    <path d="M 44.1025 294.005287 
L 575.0525 294.005287 
" style="fill: none; stroke: #000000; stroke-width: 0.8; stroke-linejoin: miter; stroke-linecap: square"/>
   </g>
   <g id="text_14">
    <!-- True antigen neighbors move upward with CDR-aware pooling -->
    <g transform="translate(123.704063 16.318125) scale(0.12 -0.12)">
     <defs>
      <path id="DejaVuSans-54" d="M -19 4666 
L 3928 4666 
L 3928 4134 
L 2272 4134 
L 2272 0 
L 1638 0 
L 1638 4134 
L -19 4134 
L -19 4666 
z
" transform="scale(0.015625)"/>
      <path id="DejaVuSans-75" d="M 544 1381 
L 544 3500 
L 1119 3500 
L 1119 1403 
Q 1119 906 1312 657 
Q 1506 409 1894 409 
Q 2359 409 2629 706 
Q 2900 1003 2900 1516 
L 2900 3500 
L 3475 3500 
L 3475 0 
L 2900 0 
L 2900 538 
Q 2691 219 2414 64 
Q 2138 -91 1772 -91 
Q 1169 -91 856 284 
Q 544 659 544 1381 
z
M 1991 3584 
L 1991 3584 
z
" transform="scale(0.015625)"/>
      <path id="DejaVuSans-68" d="M 3513 2113 
L 3513 0 
L 2938 0 
L 2938 2094 
Q 2938 2591 2744 2837 
Q 2550 3084 2163 3084 
Q 1697 3084 1428 2787 
Q 1159 2491 1159 1978 
L 1159 0 
L 581 0 
L 581 4863 
L 1159 4863 
L 1159 2956 
Q 1366 3272 1645 3428 
Q 1925 3584 2291 3584 
Q 2894 3584 3203 3211 
Q 3513 2838 3513 2113 
z
" transform="scale(0.015625)"/>
      <path id="DejaVuSans-77" d="M 269 3500 
L 844 3500 
L 1563 769 
L 2278 3500 
L 2956 3500 
L 3675 769 
L 4391 3500 
L 4966 3500 
L 4050 0 
L 3372 0 
L 2619 2869 
L 1863 0 
L 1184 0 
L 269 3500 
z
" transform="scale(0.015625)"/>
     </defs>
     <use xlink:href="#DejaVuSans-54"/>
     <use xlink:href="#DejaVuSans-72" x="46.333984"/>
     <use xlink:href="#DejaVuSans-75" x="87.447266"/>
     <use xlink:href="#DejaVuSans-65" x="150.826172"/>
     <use xlink:href="#DejaVuSans-20" x="212.349609"/>
     <use xlink:href="#DejaVuSans-61" x="244.136719"/>
     <use xlink:href="#DejaVuSans-6e" x="305.416016"/>
     <use xlink:href="#DejaVuSans-74" x="368.794922"/>
     <use xlink:href="#DejaVuSans-69" x="408.003906"/>
     <use xlink:href="#DejaVuSans-67" x="435.787109"/>
     <use xlink:href="#DejaVuSans-65" x="499.263672"/>
     <use xlink:href="#DejaVuSans-6e" x="560.787109"/>
     <use xlink:href="#DejaVuSans-20" x="624.166016"/>
     <use xlink:href="#DejaVuSans-6e" x="655.953125"/>
     <use xlink:href="#DejaVuSans-65" x="719.332031"/>
     <use xlink:href="#DejaVuSans-69" x="780.855469"/>
     <use xlink:href="#DejaVuSans-67" x="808.638672"/>
     <use xlink:href="#DejaVuSans-68" x="872.115234"/>
     <use xlink:href="#DejaVuSans-62" x="935.494141"/>
     <use xlink:href="#DejaVuSans-6f" x="998.970703"/>
     <use xlink:href="#DejaVuSans-72" x="1060.152344"/>
     <use xlink:href="#DejaVuSans-73" x="1101.265625"/>
     <use xlink:href="#DejaVuSans-20" x="1153.365234"/>
     <use xlink:href="#DejaVuSans-6d" x="1185.152344"/>
     <use xlink:href="#DejaVuSans-6f" x="1282.564453"/>
     <use xlink:href="#DejaVuSans-76" x="1343.746094"/>
     <use xlink:href="#DejaVuSans-65" x="1402.925781"/>
     <use xlink:href="#DejaVuSans-20" x="1464.449219"/>
     <use xlink:href="#DejaVuSans-75" x="1496.236328"/>
     <use xlink:href="#DejaVuSans-70" x="1559.615234"/>
     <use xlink:href="#DejaVuSans-77" x="1623.091797"/>
     <use xlink:href="#DejaVuSans-61" x="1704.878906"/>
     <use xlink:href="#DejaVuSans-72" x="1766.158203"/>
     <use xlink:href="#DejaVuSans-64" x="1805.521484"/>
     <use xlink:href="#DejaVuSans-20" x="1868.998047"/>
     <use xlink:href="#DejaVuSans-77" x="1900.785156"/>
     <use xlink:href="#DejaVuSans-69" x="1982.572266"/>
     <use xlink:href="#DejaVuSans-74" x="2010.355469"/>
     <use xlink:href="#DejaVuSans-68" x="2049.564453"/>
     <use xlink:href="#DejaVuSans-20" x="2112.943359"/>
     <use xlink:href="#DejaVuSans-43" x="2144.730469"/>
     <use xlink:href="#DejaVuSans-44" x="2214.554688"/>
     <use xlink:href="#DejaVuSans-52" x="2291.556641"/>
     <use xlink:href="#DejaVuSans-2d" x="2357.039062"/>
     <use xlink:href="#DejaVuSans-61" x="2393.123047"/>
     <use xlink:href="#DejaVuSans-77" x="2454.402344"/>
     <use xlink:href="#DejaVuSans-61" x="2536.189453"/>
     <use xlink:href="#DejaVuSans-72" x="2597.46875"/>
     <use xlink:href="#DejaVuSans-65" x="2636.332031"/>
     <use xlink:href="#DejaVuSans-20" x="2697.855469"/>
     <use xlink:href="#DejaVuSans-70" x="2729.642578"/>
     <use xlink:href="#DejaVuSans-6f" x="2793.119141"/>
     <use xlink:href="#DejaVuSans-6f" x="2854.300781"/>
     <use xlink:href="#DejaVuSans-6c" x="2915.482422"/>
     <use xlink:href="#DejaVuSans-69" x="2943.265625"/>
     <use xlink:href="#DejaVuSans-6e" x="2971.048828"/>
     <use xlink:href="#DejaVuSans-67" x="3034.427734"/>
    </g>
   </g>
  </g>
 </g>
 <defs>
  <clipPath id="pac04f081b0">
   <rect x="44.1025" y="22.318125" width="530.95" height="271.687162"/>
  </clipPath>
 </defs>
</svg>
